<svg width="45" height="45" viewBox="0 0 45 45" fill="none" xmlns="http://www.w3.org/2000/svg">
<g clip-path="url(#clip0_361_531)">
<path d="M30.7737 26.0157L35.7032 30.9223L22.3626 44.2059L9.02389 30.9241L13.9533 26.0157L22.3645 34.4342L30.7737 26.0157ZM39.1866 17.6405L44.156 22.5471L39.2302 27.4537L34.3007 22.5471L39.1866 17.6405ZM22.3645 17.6405L27.2921 22.5037L22.3626 27.4122L17.435 22.5471L22.3626 17.6423L22.3645 17.6405ZM5.54043 17.6405L10.4282 22.5471L5.54406 27.4103L0.612793 22.5471L5.54043 17.6405ZM22.3663 0.886475L35.705 14.1285L30.7755 19.0333L22.3645 10.6581L13.9552 19.0767L9.02571 14.1701L22.3645 0.888281L22.3663 0.886475Z" fill="#FFBB0D"/>
</g>
<defs>
<clipPath id="clip0_361_531">
<rect width="43.5432" height="43.3574" fill="white" transform="translate(0.612793 0.868408)"/>
</clipPath>
</defs>
</svg>
