<svg width="39" height="37" viewBox="0 0 39 37" fill="none" xmlns="http://www.w3.org/2000/svg">
<g clip-path="url(#clip0_360_503)">
<path d="M37.7417 0.647461L21.4741 12.6964L24.4992 5.59562L37.7417 0.647461Z" fill="#E17726"/>
<path d="M1.62536 0.661621L14.8324 5.59644L17.7048 12.7903L1.62536 0.661621ZM31.1949 26.2721L38.3849 26.4091L35.8721 34.9541L27.0986 32.5361L31.1949 26.2721ZM8.13374 26.2721L12.2147 32.5361L3.45608 34.9542L0.958496 26.4091L8.13374 26.2721Z" fill="#E27625"/>
<path d="M17.3145 10.958L17.6083 20.4578L8.81592 20.0574L11.3169 16.2805L11.3486 16.2442L17.3145 10.958ZM21.9236 10.8521L27.9806 16.2445L28.012 16.2807L30.513 20.0576L21.7225 20.4578L21.9236 10.8521ZM12.4725 26.2999L17.2733 30.0443L11.6965 32.7395L12.4725 26.2999ZM26.8576 26.2993L27.6175 32.7396L22.0562 30.044L26.8576 26.2993Z" fill="#E27625"/>
<path d="M22.1786 29.6912L27.822 32.4265L22.5725 34.9238L22.627 33.2733L22.1786 29.6912ZM17.1484 29.6923L16.7176 33.2463L16.7529 34.9219L11.4912 32.4265L17.1484 29.6923Z" fill="#D5BFB2"/>
<path d="M15.5187 21.6975L16.9934 24.7999L11.9727 23.3276L15.5187 21.6975ZM23.8097 21.6978L27.3725 23.3276L22.3353 24.7995L23.8097 21.6978Z" fill="#233447"/>
<path d="M12.8558 26.268L12.0443 32.9448L7.69434 26.414L12.8558 26.268ZM26.4729 26.2681L31.6346 26.414L27.2684 32.9451L26.4729 26.2681ZM30.6397 19.6797L26.8833 23.5119L23.9871 22.187L22.6005 25.105L21.6915 20.0872L30.6397 19.6797ZM8.68685 19.6797L17.6368 20.0872L16.7277 25.105L15.3408 22.1875L12.46 23.512L8.68685 19.6797Z" fill="#CC6228"/>
<path d="M8.43408 18.8935L12.684 23.2104L12.8313 27.4722L8.43408 18.8935ZM30.8993 18.8857L26.4941 27.4798L26.66 23.2104L30.8993 18.8857ZM17.4294 19.1564L17.6004 20.2341L18.0231 22.919L17.7513 31.1649L16.4666 24.5407L16.4662 24.4722L17.4294 19.1564ZM21.8975 19.1415L22.8632 24.4722L22.8628 24.5407L21.5748 31.1815L21.5239 29.5204L21.3229 22.87L21.8975 19.1415Z" fill="#E27525"/>
<path d="M27.0376 23.0388L26.8938 26.7416L22.4104 30.2382L21.5041 29.5972L22.52 24.3591L27.0376 23.0388ZM12.3066 23.0388L16.8085 24.3591L17.8244 29.5972L16.9181 30.2382L12.4346 26.7413L12.3066 23.0388Z" fill="#F5841F"/>
<path d="M10.6333 31.6089L16.3692 34.3294L16.3449 33.1676L16.8249 32.7459H22.5019L22.9992 33.1662L22.9625 34.327L28.6621 31.6157L25.8886 33.9099L22.5351 36.2155H16.7789L13.4275 33.9004L10.6333 31.6089Z" fill="#C0AC9D"/>
<path d="M21.7681 29.3291L22.5791 29.9026L23.0543 33.6982L22.3666 33.117H16.9647L16.29 33.7099L16.7497 29.9029L17.561 29.3291H21.7681Z" fill="#161616"/>
<path d="M36.6675 0.980957L38.6203 6.84495L37.4007 12.7742L38.2691 13.4447L37.094 14.3421L37.9772 15.0249L36.8077 16.0909L37.5257 16.6114L35.6203 18.8389L27.8055 16.5612L27.7378 16.5248L22.1063 11.7695L36.6675 0.980957ZM2.66125 0.980957L17.2226 11.7695L11.5909 16.5248L11.5233 16.5612L3.70841 18.8389L1.80305 16.6114L2.52041 16.0914L1.35166 15.0249L2.23311 14.3429L1.04037 13.4429L1.94152 12.7719L0.708496 6.84525L2.66125 0.980957Z" fill="#763E1A"/>
<path d="M27.4234 16.0632L35.7037 18.4764L38.3938 26.7759H31.2966L26.4066 26.8376L29.9629 19.8987L27.4234 16.0632ZM11.9057 16.0632L9.36572 19.8987L12.9225 26.8376L8.03466 26.7759H0.950195L3.6252 18.4766L11.9057 16.0632ZM24.9046 5.55615L22.5886 11.8177L22.0971 20.2764L21.909 22.9277L21.8941 29.7006H17.4348L17.4203 22.9404L17.2317 20.2742L16.74 11.8177L14.4243 5.55615H24.9046Z" fill="#F5841F"/>
</g>
<defs>
<clipPath id="clip0_360_503">
<rect width="37.9147" height="35.578" fill="white" transform="translate(0.707031 0.647461)"/>
</clipPath>
</defs>
</svg>
