<svg width="52" height="52" viewBox="0 0 52 52" fill="none" xmlns="http://www.w3.org/2000/svg">
<rect width="52" height="52" rx="10" fill="url(#paint0_linear_208_44)"/>
<path d="M38.1165 14.8832C35.8999 13.8499 33.4999 13.0999 30.9999 12.6666C30.978 12.6659 30.9561 12.67 30.936 12.6786C30.9158 12.6873 30.8978 12.7002 30.8832 12.7166C30.5832 13.2666 30.2332 13.9832 29.9999 14.5332C27.3482 14.1332 24.6515 14.1332 21.9999 14.5332C21.7665 13.9666 21.4165 13.2666 21.0999 12.7166C21.0832 12.6832 21.0332 12.6666 20.9832 12.6666C18.4832 13.0999 16.0999 13.8499 13.8665 14.8832C13.8499 14.8832 13.8332 14.8999 13.8165 14.9166C9.2832 21.6999 8.0332 28.2999 8.64987 34.8332C8.64987 34.8666 8.66654 34.8999 8.69987 34.9166C11.6999 37.1166 14.5832 38.4499 17.4332 39.3332C17.4832 39.3499 17.5332 39.3332 17.5499 39.2999C18.2165 38.3832 18.8165 37.4166 19.3332 36.3999C19.3665 36.3332 19.3332 36.2666 19.2665 36.2499C18.3165 35.8832 17.4165 35.4499 16.5332 34.9499C16.4665 34.9166 16.4665 34.8166 16.5165 34.7666C16.6999 34.6332 16.8832 34.4832 17.0665 34.3499C17.0999 34.3166 17.1499 34.3166 17.1832 34.3332C22.9165 36.9499 29.0999 36.9499 34.7665 34.3332C34.7999 34.3166 34.8499 34.3166 34.8832 34.3499C35.0665 34.4999 35.2499 34.6332 35.4332 34.7832C35.4999 34.8332 35.4999 34.9332 35.4165 34.9666C34.5499 35.4832 33.6332 35.8999 32.6832 36.2666C32.6165 36.2832 32.5999 36.3666 32.6165 36.4166C33.1499 37.4332 33.7499 38.3999 34.3999 39.3166C34.4499 39.3332 34.4999 39.3499 34.5499 39.3332C37.4165 38.4499 40.2999 37.1166 43.2999 34.9166C43.3332 34.8999 43.3499 34.8666 43.3499 34.8332C44.0832 27.2832 42.1332 20.7332 38.1832 14.9166C38.1665 14.8999 38.1499 14.8832 38.1165 14.8832ZM20.1999 30.8499C18.4832 30.8499 17.0499 29.2666 17.0499 27.3166C17.0499 25.3666 18.4499 23.7832 20.1999 23.7832C21.9665 23.7832 23.3665 25.3832 23.3499 27.3166C23.3499 29.2666 21.9499 30.8499 20.1999 30.8499ZM31.8165 30.8499C30.0999 30.8499 28.6665 29.2666 28.6665 27.3166C28.6665 25.3666 30.0665 23.7832 31.8165 23.7832C33.5832 23.7832 34.9832 25.3832 34.9665 27.3166C34.9665 29.2666 33.5832 30.8499 31.8165 30.8499Z" fill="white"/>
<defs>
<linearGradient id="paint0_linear_208_44" x1="0" y1="26" x2="52" y2="26" gradientUnits="userSpaceOnUse">
<stop stop-color="#9A5BFF"/>
<stop offset="0.53125" stop-color="#FF1212"/>
<stop offset="1" stop-color="#FF7F56"/>
</linearGradient>
</defs>
</svg>
