<svg width="52" height="52" viewBox="0 0 52 52" fill="none" xmlns="http://www.w3.org/2000/svg">
<rect width="52" height="52" rx="10" fill="white" fill-opacity="0.1"/>
<path d="M34.9002 15.1002C34.5046 15.1002 34.1179 15.2175 33.789 15.4372C33.4601 15.657 33.2038 15.9693 33.0524 16.3348C32.901 16.7002 32.8614 17.1024 32.9386 17.4903C33.0158 17.8783 33.2062 18.2347 33.4859 18.5144C33.7657 18.7941 34.122 18.9846 34.51 19.0617C34.8979 19.1389 35.3001 19.0993 35.6655 18.9479C36.031 18.7965 36.3433 18.5402 36.5631 18.2113C36.7829 17.8824 36.9002 17.4957 36.9002 17.1002C36.9002 16.5697 36.6894 16.061 36.3144 15.6859C35.9393 15.3109 35.4306 15.1002 34.9002 15.1002ZM42.5668 19.1335C42.5344 17.7507 42.2754 16.3825 41.8002 15.0835C41.3764 13.9721 40.7168 12.9656 39.8668 12.1335C39.0415 11.2792 38.0328 10.6238 36.9168 10.2168C35.6213 9.7271 34.2516 9.46218 32.8668 9.4335C31.1002 9.3335 30.5335 9.3335 26.0002 9.3335C21.4668 9.3335 20.9002 9.3335 19.1335 9.4335C17.7487 9.46218 16.3791 9.7271 15.0835 10.2168C13.9696 10.6279 12.9617 11.2828 12.1335 12.1335C11.2792 12.9588 10.6238 13.9676 10.2168 15.0835C9.7271 16.3791 9.46218 17.7487 9.4335 19.1335C9.3335 20.9002 9.3335 21.4668 9.3335 26.0002C9.3335 30.5335 9.3335 31.1002 9.4335 32.8668C9.46218 34.2516 9.7271 35.6213 10.2168 36.9168C10.6238 38.0328 11.2792 39.0415 12.1335 39.8668C12.9617 40.7176 13.9696 41.3724 15.0835 41.7835C16.3791 42.2732 17.7487 42.5381 19.1335 42.5668C20.9002 42.6668 21.4668 42.6668 26.0002 42.6668C30.5335 42.6668 31.1002 42.6668 32.8668 42.5668C34.2516 42.5381 35.6213 42.2732 36.9168 41.7835C38.0328 41.3765 39.0415 40.7211 39.8668 39.8668C40.7206 39.0378 41.3807 38.0305 41.8002 36.9168C42.2754 35.6178 42.5344 34.2497 42.5668 32.8668C42.5668 31.1002 42.6668 30.5335 42.6668 26.0002C42.6668 21.4668 42.6668 20.9002 42.5668 19.1335ZM39.5668 32.6668C39.5547 33.7248 39.3631 34.773 39.0002 35.7668C38.7341 36.4922 38.3066 37.1475 37.7502 37.6835C37.2096 38.2343 36.5555 38.6609 35.8335 38.9335C34.8397 39.2964 33.7914 39.488 32.7335 39.5002C31.0668 39.5835 30.4502 39.6002 26.0668 39.6002C21.6835 39.6002 21.0668 39.6002 19.4002 39.5002C18.3016 39.5207 17.2078 39.3516 16.1668 39.0002C15.4765 38.7136 14.8524 38.2881 14.3335 37.7502C13.7803 37.2147 13.3582 36.5588 13.1002 35.8335C12.6933 34.8254 12.4676 33.7534 12.4335 32.6668C12.4335 31.0002 12.3335 30.3835 12.3335 26.0002C12.3335 21.6168 12.3335 21.0002 12.4335 19.3335C12.441 18.2519 12.6384 17.1801 13.0168 16.1668C13.3102 15.4633 13.7606 14.8363 14.3335 14.3335C14.8399 13.7604 15.4656 13.3053 16.1668 13.0002C17.1827 12.6336 18.2535 12.442 19.3335 12.4335C21.0002 12.4335 21.6168 12.3335 26.0002 12.3335C30.3835 12.3335 31.0002 12.3335 32.6668 12.4335C33.7248 12.4456 34.773 12.6372 35.7668 13.0002C36.5242 13.2812 37.204 13.7382 37.7502 14.3335C38.2963 14.8455 38.7231 15.4714 39.0002 16.1668C39.3706 17.1817 39.5623 18.2531 39.5668 19.3335C39.6502 21.0002 39.6668 21.6168 39.6668 26.0002C39.6668 30.3835 39.6502 31.0002 39.5668 32.6668ZM26.0002 17.4502C24.3098 17.4535 22.6584 17.9577 21.2546 18.8992C19.8507 19.8407 18.7575 21.1772 18.1129 22.7398C17.4683 24.3023 17.3014 26.0209 17.6332 27.6784C17.9649 29.3358 18.7806 30.8577 19.977 32.0518C21.1734 33.2459 22.6968 34.0585 24.3549 34.3871C26.013 34.7156 27.7313 34.5453 29.2926 33.8977C30.8539 33.2501 32.1883 32.1542 33.127 30.7486C34.0658 29.3429 34.5668 27.6905 34.5668 26.0002C34.569 24.8753 34.3488 23.7612 33.9189 22.7218C33.489 21.6823 32.8578 20.7382 32.0616 19.9436C31.2655 19.149 30.3201 18.5196 29.2798 18.0917C28.2396 17.6638 27.125 17.4458 26.0002 17.4502ZM26.0002 31.5502C24.9025 31.5502 23.8294 31.2247 22.9167 30.6148C22.0041 30.005 21.2927 29.1382 20.8726 28.1241C20.4526 27.1099 20.3427 25.994 20.5568 24.9174C20.771 23.8408 21.2995 22.8519 22.0757 22.0757C22.8519 21.2995 23.8408 20.771 24.9174 20.5568C25.994 20.3427 27.1099 20.4526 28.1241 20.8726C29.1382 21.2927 30.005 22.0041 30.6148 22.9167C31.2247 23.8294 31.5502 24.9025 31.5502 26.0002C31.5502 26.729 31.4066 27.4507 31.1277 28.1241C30.8488 28.7974 30.44 29.4092 29.9246 29.9246C29.4092 30.44 28.7974 30.8488 28.1241 31.1277C27.4507 31.4066 26.729 31.5502 26.0002 31.5502Z" fill="white" fill-opacity="0.5"/>
</svg>
