<svg width="52" height="52" viewBox="0 0 52 52" fill="none" xmlns="http://www.w3.org/2000/svg">
<rect width="52" height="52" rx="10" fill="white" fill-opacity="0.1"/>
<path fill-rule="evenodd" clip-rule="evenodd" d="M15.6465 29.3668C15.7182 29.3907 15.7918 29.408 15.8665 29.4185C16.3381 30.5296 16.807 31.6418 17.2732 32.7551C18.1115 34.7585 18.9565 36.8218 19.1415 37.4151C19.3732 38.1451 19.6165 38.6418 19.8832 38.9818C20.0215 39.1551 20.1799 39.3085 20.3665 39.4251C20.4638 39.486 20.5678 39.5352 20.6765 39.5718C21.2099 39.7718 21.6965 39.6885 22.0015 39.5868C22.1805 39.5257 22.3508 39.4417 22.5082 39.3368L22.5165 39.3335L27.2265 36.3968L32.6682 40.5668C32.7482 40.6285 32.8349 40.6801 32.9282 40.7218C33.5815 41.0051 34.2149 41.1051 34.8115 41.0251C35.4049 40.9418 35.8765 40.6935 36.2282 40.4118C36.632 40.0863 36.9539 39.6708 37.1682 39.1985L37.1832 39.1618L37.1882 39.1485L37.1915 39.1418V39.1385L37.1932 39.1368C37.2222 39.0651 37.2445 38.9909 37.2599 38.9151L42.2265 13.8735C42.2422 13.7933 42.25 13.7118 42.2499 13.6301C42.2499 12.8968 41.9732 12.1985 41.3249 11.7768C40.7682 11.4151 40.1499 11.3985 39.7582 11.4285C39.3382 11.4618 38.9482 11.5651 38.6865 11.6485C38.5401 11.6949 38.3955 11.7472 38.2532 11.8051L38.2349 11.8135L10.3782 22.7401L10.3749 22.7418C10.2806 22.7765 10.1878 22.8148 10.0965 22.8568C9.87564 22.9561 9.66374 23.0743 9.46321 23.2101C9.08487 23.4685 8.21321 24.1785 8.36154 25.3518C8.47821 26.2851 9.11821 26.8601 9.50987 27.1368C9.72321 27.2885 9.92654 27.3968 10.0765 27.4685C10.1432 27.5018 10.2865 27.5585 10.3482 27.5851L10.3649 27.5901L15.6465 29.3668ZM39.2099 14.1135H39.2065C39.1922 14.1198 39.1778 14.126 39.1632 14.1318L11.2732 25.0735C11.2589 25.0793 11.2444 25.0848 11.2299 25.0901L11.2132 25.0951C11.1623 25.1152 11.1122 25.1374 11.0632 25.1618C11.1096 25.1884 11.1574 25.2123 11.2065 25.2335L16.4432 26.9968C16.5368 27.0283 16.6263 27.0709 16.7099 27.1235L34.0049 16.9985L34.0215 16.9901C34.0887 16.9493 34.1577 16.9115 34.2282 16.8768C34.3482 16.8151 34.5399 16.7251 34.7565 16.6585C34.9065 16.6118 35.3515 16.4801 35.8315 16.6351C36.0861 16.7154 36.313 16.8656 36.4863 17.0687C36.6596 17.2717 36.7723 17.5194 36.8115 17.7835C36.8736 18.0147 36.8753 18.258 36.8165 18.4901C36.6999 18.9485 36.3799 19.3051 36.0865 19.5785C35.8365 19.8118 32.5949 22.9385 29.3965 26.0251L25.0415 30.2251L24.2665 30.9751L34.0532 38.4785C34.1853 38.5339 34.3288 38.5568 34.4715 38.5451C34.5435 38.5354 34.6111 38.5053 34.6665 38.4585C34.7341 38.4014 34.7921 38.3339 34.8382 38.2585L34.8415 38.2568L39.6582 13.9685C39.5065 14.005 39.3577 14.0529 39.2132 14.1118L39.2099 14.1135ZM25.1082 34.7701L23.1549 33.2735L22.6815 36.2818L25.1082 34.7701ZM21.3632 30.3035L23.3049 28.4285L27.6599 24.2251L29.2815 22.6618L18.4149 29.0235L18.4732 29.1601C19.1585 30.7792 19.8363 32.4014 20.5065 34.0268L20.9782 31.0268C21.0209 30.7486 21.1566 30.4947 21.3632 30.3035Z" fill="white" fill-opacity="0.5"/>
</svg>
