<svg width="52" height="52" viewBox="0 0 52 52" fill="none" xmlns="http://www.w3.org/2000/svg">
<rect width="52" height="52" rx="10" fill="white" fill-opacity="0.1"/>
<path d="M31.5835 15.25C30.3171 15.2498 29.1011 15.7467 28.1972 16.6337C27.2934 17.5208 26.7737 18.7271 26.7502 19.9934L26.7035 22.6184C26.701 22.7594 26.6687 22.8984 26.6086 23.0261C26.5486 23.1538 26.4622 23.2673 26.3552 23.3593C26.2481 23.4512 26.1228 23.5194 25.9875 23.5595C25.8522 23.5996 25.71 23.6105 25.5702 23.5917L22.9668 23.2367C19.5452 22.77 16.2652 21.195 13.1168 18.5734C12.1218 24.09 14.0668 27.9117 18.7552 30.86L21.6668 32.69C21.8049 32.7769 21.9197 32.8962 22.0011 33.0376C22.0825 33.179 22.128 33.3382 22.1338 33.5012C22.1395 33.6643 22.1053 33.8263 22.0341 33.9731C21.9629 34.1199 21.8568 34.247 21.7252 34.3434L19.0718 36.2834C20.6502 36.3834 22.1485 36.3134 23.3918 36.0667C31.2552 34.4967 36.4835 28.58 36.4835 18.82C36.4835 18.0234 34.7952 15.25 31.5835 15.25ZM23.4168 19.9334C23.4459 18.3268 23.9483 16.7645 24.8611 15.4421C25.7739 14.1197 27.0565 13.0959 28.5483 12.499C30.0402 11.9021 31.675 11.7585 33.2481 12.0863C34.8211 12.4141 36.2625 13.1986 37.3918 14.3417C38.5768 14.3334 39.5852 14.6334 41.8385 13.265C41.2818 15.9984 41.0052 17.1867 39.8168 18.8184C39.8168 31.5534 31.9885 37.7484 24.0435 39.3334C18.5985 40.42 10.6768 38.635 8.41016 36.2634C9.56516 36.175 14.2652 35.67 16.9818 33.68C14.6818 32.1634 5.53516 26.78 11.5468 12.31C14.3685 15.605 17.2302 17.8467 20.1302 19.0384C22.0585 19.83 22.5335 19.8134 23.4185 19.935L23.4168 19.9334Z" fill="white" fill-opacity="0.5"/>
</svg>
