<svg width="79" height="17" viewBox="0 0 79 17" fill="none" xmlns="http://www.w3.org/2000/svg">
<g clip-path="url(#clip0_4431_118)">
<path d="M74.5281 15.9905C74.1543 15.9905 73.6746 15.8706 73.0751 15.5179L70.9661 14.2695C70.7474 14.1425 70.3242 14.1425 70.1126 14.2695L67.9965 15.5179C66.748 16.2586 66.0145 15.9623 65.6829 15.7225C65.3585 15.4827 64.8506 14.869 65.1821 13.4583L65.6829 11.2928C65.7394 11.0671 65.6265 10.6792 65.4572 10.5099L63.7079 8.76062C62.8333 7.88597 62.9038 7.1383 63.0237 6.77151C63.1437 6.40472 63.5245 5.7558 64.7378 5.55124L66.9879 5.1774C67.1995 5.14213 67.5028 4.91642 67.5945 4.72597L68.8429 2.23606C69.4072 1.10044 70.1479 0.931152 70.5358 0.931152C70.9237 0.931152 71.6644 1.10044 72.2287 2.23606L73.4701 4.71892C73.5688 4.90937 73.8721 5.13508 74.0837 5.17035L76.3338 5.54419C77.5541 5.74874 77.935 6.39767 78.0479 6.76446C78.1607 7.13124 78.2312 7.87892 77.3637 8.75356L75.6144 10.5099C75.4451 10.6792 75.3393 11.0601 75.3887 11.2928L75.8895 13.4583C76.2139 14.869 75.7131 15.4827 75.3887 15.7225C75.2123 15.8495 74.9302 15.9905 74.5281 15.9905ZM70.5358 13.1127C70.8814 13.1127 71.227 13.1973 71.5021 13.3595L73.6112 14.608C74.2248 14.9748 74.6128 14.9748 74.7609 14.869C74.909 14.7632 75.0148 14.3894 74.8596 13.6981L74.3588 11.5327C74.2248 10.9472 74.4435 10.1925 74.8667 9.76223L76.616 8.01294C76.9616 7.66731 77.1168 7.32874 77.0462 7.09597C76.9687 6.86321 76.6442 6.67276 76.1645 6.59517L73.9145 6.22133C73.3713 6.12963 72.7788 5.69231 72.532 5.19856L71.2905 2.71571C71.0648 2.26428 70.7827 1.99624 70.5358 1.99624C70.2889 1.99624 70.0068 2.26428 69.7881 2.71571L68.5396 5.19856C68.2928 5.69231 67.7003 6.12963 67.1571 6.22133L64.9141 6.59517C64.4345 6.67276 64.11 6.86321 64.0324 7.09597C63.9548 7.32874 64.117 7.67437 64.4627 8.01294L66.212 9.76223C66.6352 10.1854 66.8538 10.9472 66.7198 11.5327L66.219 13.6981C66.0568 14.3964 66.1696 14.7632 66.3178 14.869C66.4659 14.9748 66.8468 14.9678 67.4675 14.608L69.5765 13.3595C69.8445 13.1973 70.1902 13.1127 70.5358 13.1127Z" fill="white" fill-opacity="0.5"/>
</g>
<path d="M4.04885 11.2856C4.12644 10.94 3.98536 10.4463 3.73849 10.1994L2.02447 8.48538C1.4884 7.94931 1.27679 7.37797 1.43197 6.88422C1.5942 6.39047 2.09501 6.05189 2.84269 5.92493L5.0434 5.55815C5.36081 5.50172 5.74876 5.21957 5.89688 4.93038L7.1101 2.49689C7.46278 1.79859 7.94242 1.41064 8.46438 1.41064C8.98635 1.41064 9.46599 1.79859 9.81867 2.49689L11.0319 4.93038C11.1236 5.11377 11.314 5.29011 11.5186 5.41002L3.92188 13.0067C3.82313 13.1055 3.65385 13.0138 3.68206 12.8727L4.04885 11.2856ZM13.1903 10.2008C12.9363 10.4547 12.7953 10.9414 12.8799 11.2871L13.3666 13.4102C13.5712 14.2919 13.4442 14.9549 13.0069 15.2723C12.8211 15.4022 12.5986 15.4689 12.3721 15.4628C12.0123 15.4628 11.5891 15.3288 11.1236 15.0537L9.05688 13.8263C8.73242 13.6359 8.19635 13.6359 7.87188 13.8263L5.80519 15.0537C5.02224 15.5121 4.35215 15.5897 3.92188 15.2723C3.75965 15.1524 3.63974 14.9902 3.56215 14.7786L12.1393 6.20143C12.4638 5.87697 12.9222 5.72884 13.3666 5.80643L14.079 5.92634C14.8267 6.05331 15.3275 6.39188 15.4897 6.88563C15.6449 7.37938 15.4333 7.95072 14.8972 8.48679L13.1903 10.2008Z" fill="#FFE600"/>
<path d="M19.5669 11.2856C19.6445 10.94 19.5034 10.4463 19.2566 10.1994L17.5425 8.48538C17.0065 7.94931 16.7949 7.37797 16.95 6.88422C17.1123 6.39047 17.6131 6.05189 18.3608 5.92493L20.5615 5.55815C20.8789 5.50172 21.2668 5.21957 21.4149 4.93038L22.6282 2.49689C22.9808 1.79859 23.4605 1.41064 23.9824 1.41064C24.5044 1.41064 24.9841 1.79859 25.3367 2.49689L26.5499 4.93038C26.6416 5.11377 26.8321 5.29011 27.0366 5.41002L19.4399 13.0067C19.3412 13.1055 19.1719 13.0138 19.2001 12.8727L19.5669 11.2856ZM28.7083 10.2008C28.4544 10.4547 28.3133 10.9414 28.398 11.2871L28.8847 13.4102C29.0892 14.2919 28.9623 14.9549 28.5249 15.2723C28.3392 15.4022 28.1167 15.4689 27.8901 15.4628C27.5304 15.4628 27.1072 15.3288 26.6416 15.0537L24.5749 13.8263C24.2505 13.6359 23.7144 13.6359 23.3899 13.8263L21.3233 15.0537C20.5403 15.5121 19.8702 15.5897 19.4399 15.2723C19.2777 15.1524 19.1578 14.9902 19.0802 14.7786L27.6574 6.20143C27.9818 5.87697 28.4403 5.72884 28.8847 5.80643L29.5971 5.92634C30.3448 6.05331 30.8456 6.39188 31.0078 6.88563C31.163 7.37938 30.9514 7.95072 30.4153 8.48679L28.7083 10.2008Z" fill="#FFE600"/>
<path d="M35.0845 11.2856C35.1621 10.94 35.021 10.4463 34.7741 10.1994L33.0601 8.48538C32.524 7.94931 32.3124 7.37797 32.4676 6.88422C32.6298 6.39047 33.1307 6.05189 33.8783 5.92493L36.079 5.55815C36.3965 5.50172 36.7844 5.21957 36.9325 4.93038L38.1457 2.49689C38.4984 1.79859 38.9781 1.41064 39.5 1.41064C40.022 1.41064 40.5016 1.79859 40.8543 2.49689L42.0675 4.93038C42.1592 5.11377 42.3497 5.29011 42.5542 5.41002L34.9575 13.0067C34.8588 13.1055 34.6895 13.0138 34.7177 12.8727L35.0845 11.2856ZM44.2259 10.2008C43.972 10.4547 43.8309 10.9414 43.9156 11.2871L44.4023 13.4102C44.6068 14.2919 44.4798 14.9549 44.0425 15.2723C43.8568 15.4022 43.6342 15.4689 43.4077 15.4628C43.048 15.4628 42.6248 15.3288 42.1592 15.0537L40.0925 13.8263C39.7681 13.6359 39.232 13.6359 38.9075 13.8263L36.8408 15.0537C36.0579 15.5121 35.3878 15.5897 34.9575 15.2723C34.7953 15.1524 34.6754 14.9902 34.5978 14.7786L43.1749 6.20143C43.4994 5.87697 43.9579 5.72884 44.4023 5.80643L45.1147 5.92634C45.8623 6.05331 46.3632 6.39188 46.5254 6.88563C46.6806 7.37938 46.469 7.95072 45.9329 8.48679L44.2259 10.2008Z" fill="#FFE600"/>
<path d="M50.6026 11.2856C50.6801 10.94 50.5391 10.4463 50.2922 10.1994L48.5782 8.48538C48.0421 7.94931 47.8305 7.37797 47.9857 6.88422C48.1479 6.39047 48.6487 6.05189 49.3964 5.92493L51.5971 5.55815C51.9145 5.50172 52.3025 5.21957 52.4506 4.93038L53.6638 2.49689C54.0165 1.79859 54.4961 1.41064 55.0181 1.41064C55.5401 1.41064 56.0197 1.79859 56.3724 2.49689L57.5856 4.93038C57.6773 5.11377 57.8677 5.29011 58.0723 5.41002L50.4756 13.0067C50.3768 13.1055 50.2076 13.0138 50.2358 12.8727L50.6026 11.2856ZM59.744 10.2008C59.4901 10.4547 59.349 10.9414 59.4336 11.2871L59.9203 13.4102C60.1249 14.2919 59.9979 14.9549 59.5606 15.2723C59.3748 15.4022 59.1523 15.4689 58.9258 15.4628C58.566 15.4628 58.1428 15.3288 57.6773 15.0537L55.6106 13.8263C55.2861 13.6359 54.7501 13.6359 54.4256 13.8263L52.3589 15.0537C51.576 15.5121 50.9059 15.5897 50.4756 15.2723C50.3134 15.1524 50.1935 14.9902 50.1159 14.7786L58.693 6.20143C59.0175 5.87697 59.476 5.72884 59.9203 5.80643L60.6327 5.92634C61.3804 6.05331 61.8812 6.39188 62.0434 6.88563C62.1986 7.37938 61.987 7.95072 61.451 8.48679L59.744 10.2008Z" fill="#FFE600"/>
<defs>
<clipPath id="clip0_4431_118">
<rect width="16.9286" height="16.9286" fill="white" transform="translate(62.0713)"/>
</clipPath>
</defs>
</svg>
