<svg width="24" height="24" viewBox="0 0 24 24" fill="none" xmlns="http://www.w3.org/2000/svg">
<path d="M12.0002 12C13.3262 12 14.598 11.4732 15.5357 10.5355C16.4734 9.59785 17.0002 8.32608 17.0002 7C17.0002 5.67392 16.4734 4.40215 15.5357 3.46447C14.598 2.52678 13.3262 2 12.0002 2C10.6741 2 9.4023 2.52678 8.46462 3.46447C7.52694 4.40215 7.00016 5.67392 7.00016 7C7.00016 8.32608 7.52694 9.59785 8.46462 10.5355C9.4023 11.4732 10.6741 12 12.0002 12ZM12.0002 14.5C6.99016 14.5 2.91016 17.86 2.91016 22C2.91016 22.28 3.13016 22.5 3.41016 22.5H20.5902C20.8702 22.5 21.0902 22.28 21.0902 22C21.0902 17.86 17.0102 14.5 12.0002 14.5Z" fill="white"/>
</svg>
