<svg width="28" height="22" viewBox="0 0 28 22" fill="none" xmlns="http://www.w3.org/2000/svg">
<path d="M14.8218 11.5756L13.493 7.45995L13.3307 6.97677L13.3073 6.89282L13.249 6.68294L13.2111 6.56693C13.2096 6.53106 13.1704 6.46411 13.1596 6.5201L13.0649 6.70374C13.0282 6.77388 13.0098 6.80732 12.9433 6.95385L12.8467 7.17024L12.6721 7.57284L12.3266 8.39094L11.9712 9.20621L11.7902 9.61561L11.5267 10.182L11.2515 10.7848L10.9451 11.353L10.8717 11.4933L10.7935 11.5979L10.6338 11.8038C10.5411 11.9281 10.4352 12.042 10.3178 12.1438C10.2382 12.205 10.1531 12.2589 10.0636 12.3047L9.93657 12.346C9.91138 12.3487 9.88606 12.3497 9.86074 12.3492L9.83107 12.3504C9.83203 12.3733 9.83933 12.1541 9.82669 12.2461L9.78713 12.2477C9.7065 12.2152 9.64221 12.1787 9.56461 12.1395C9.47532 12.105 9.39278 12.0554 9.32066 11.9929C9.11958 11.7463 8.96964 11.4629 8.87941 11.1589C8.74895 10.805 8.63114 10.4376 8.50357 10.0738L8.23704 9.2324L8.03821 8.58742L7.65292 7.27735L6.88261 4.66372L6.60029 3.76092C6.53727 3.55138 6.46357 3.34515 6.37948 3.143C6.37839 3.11691 6.35421 3.09179 6.33663 3.0664C6.31905 3.041 6.29378 3.0682 6.28512 3.09796L6.21175 3.23824C6.16957 3.33475 6.12422 3.43465 6.08232 3.53768C6.04041 3.6407 6.0018 3.74359 5.96332 3.84974L5.82179 4.25422C5.52786 5.11916 5.23421 5.99063 4.94042 6.85883C4.66798 7.65863 4.40341 8.46245 4.14672 9.27029C4.01508 9.67435 3.88 10.0753 3.73847 10.4798L3.51614 11.0836C3.41598 11.2936 3.37269 11.4425 3.18872 11.7801L3.08266 11.9283L3.04241 11.9137L3.02593 11.9144L2.98966 11.9159L2.91521 11.9517C2.86048 11.9787 2.8025 11.9987 2.74267 12.0112C2.67344 12.0141 2.6075 12.0169 2.54156 12.0196L1.96903 11.9914L0.975341 11.9221C0.338799 11.8639 0.308315 11.7672 0.722074 11.6322C0.920712 11.5651 1.22443 11.4837 1.60344 11.3861L2.22778 11.2325C2.37517 11.2034 2.37463 11.1904 2.39042 11.1734C2.40028 11.1583 2.39945 11.1387 2.38837 11.1245L2.38755 11.1049C2.38755 11.1049 2.38755 11.1049 2.38481 11.0397L2.43663 10.7795C2.47646 10.5942 2.52609 10.4111 2.58532 10.2309L3.58986 6.7849C3.7604 6.20607 3.93094 5.62724 4.1115 5.05126L4.40543 4.18632L4.55575 3.75534C4.5853 3.67243 4.69537 3.30521 4.80021 3.04927L5.09578 2.22346C5.20378 1.96412 5.32674 1.74663 5.439 1.50998C5.49712 1.39974 5.55414 1.26341 5.61322 1.17599L5.79977 1.05709L5.98303 0.938327C6.00658 0.917739 6.03611 0.905062 6.06738 0.902117L6.1432 0.898932L6.30035 0.866197C6.36888 0.865608 6.43713 0.874845 6.50296 0.893619C6.62516 0.93809 6.73934 1.00167 6.84113 1.08195C7.08246 1.24494 7.3103 1.71557 7.50708 2.23323C7.60376 2.4905 7.70057 2.75103 7.79422 3.01497L7.93305 3.41093L8.00404 3.60722L8.03851 3.7201L8.31616 4.59043L8.84495 6.32894C9.12534 7.2645 9.40696 8.22939 9.70685 9.15759C9.75272 9.30593 9.80297 9.48022 9.85488 9.61524C9.88053 9.69168 9.91014 9.76676 9.94359 9.84018C9.94633 9.90539 10.0029 9.83768 10.0182 9.80764L10.0764 9.70066C10.1499 9.56364 10.2134 9.42378 10.2802 9.28377L10.7787 8.1783L11.4271 6.71047L12.3783 4.51126L12.6663 4.1333L12.8072 3.95098L12.9228 3.87099L13.1534 3.70123C13.1526 3.68167 13.226 3.69819 13.2424 3.6975C13.2661 3.70873 13.2888 3.72199 13.3102 3.73712C13.3551 3.76522 13.3974 3.79734 13.4364 3.83308C13.657 4.01735 13.8354 4.2459 13.9599 4.50362C14.1263 4.84616 14.2762 5.27106 14.4219 5.67327C14.763 6.63894 14.8767 6.98696 15.0615 7.53453L15.5857 9.08377C16.2139 10.988 16.8226 12.8995 17.4764 14.7831L17.7256 15.5272L17.8754 15.9488C17.9373 16.0922 18.0093 16.2311 18.091 16.3644C18.091 16.3644 18.0925 16.4003 18.1291 16.4053C18.1443 16.3956 18.1583 16.3841 18.1706 16.3709C18.1975 16.3442 18.2228 16.3158 18.2463 16.286C18.2935 16.2318 18.3372 16.1711 18.3809 16.1105L18.6119 15.7905L18.9071 15.3501L19.672 14.1388C19.9822 13.6619 20.2925 13.1882 20.5797 12.7123C20.7321 12.4452 20.922 12.2007 21.1437 11.9863C21.2258 11.9068 21.3144 11.8343 21.4087 11.7693L21.4728 11.7242C21.4918 11.7038 21.5421 11.7213 21.5651 11.7203C21.6177 11.7462 21.6676 11.7769 21.7143 11.812C21.9781 12.0329 22.193 12.3052 22.3457 12.612C22.4424 12.7909 22.5362 12.9796 22.6298 13.1652L22.8798 13.6904L23.6301 15.2791C24.117 16.3334 24.6035 17.3812 25.0836 18.4325C25.2947 18.8973 25.515 19.3453 25.723 19.8168C25.7813 19.945 25.8326 20.067 25.88 20.1728C25.8891 20.2014 25.9002 20.2293 25.9132 20.2563C25.9369 20.2709 25.9631 20.2809 25.9904 20.2858L26.1336 20.3124C26.1336 20.3124 26.2996 20.3348 26.3994 20.3503C26.4991 20.3657 26.6021 20.3809 26.6921 20.4C26.9726 20.4429 27.2411 20.5429 27.4805 20.6936C27.5825 20.7494 27.6792 20.8142 27.7694 20.8872C27.8665 20.9975 27.7292 21.1111 27.3884 21.2528C27.1757 21.3374 26.9582 21.4097 26.737 21.4696C26.5998 21.5048 26.4492 21.5372 26.282 21.5671C26.2227 21.5696 26.0491 21.603 25.9172 21.6086C25.7705 21.6243 25.6229 21.6305 25.4754 21.6271C25.3012 21.612 25.1323 21.5601 24.9803 21.4748C24.9049 21.4283 24.8403 21.3664 24.791 21.2933C24.7317 21.2243 24.6808 21.1485 24.6395 21.0677C24.3974 20.5716 24.1518 20.0723 23.9159 19.5661C23.7021 19.1144 23.4882 18.6628 23.2742 18.2047L22.0151 15.4352L21.6954 14.743L21.5253 14.3876L21.4422 14.2179L21.4413 14.1984C21.4413 14.1984 21.4249 14.1991 21.4216 14.1992L21.4223 14.2155L21.2151 14.5509L20.7941 15.2219L20.0703 16.3107L19.7914 16.7471L19.4496 17.2579L19.0677 17.7575C18.9454 17.9129 18.8148 18.0261 18.6918 18.1652C18.6131 18.2263 18.5247 18.2742 18.4302 18.3069L18.304 18.3677C18.2646 18.3724 18.2249 18.3741 18.1853 18.3727C18.1093 18.3873 18.0315 18.3905 17.9545 18.3824C17.91 18.3805 17.8657 18.3758 17.8218 18.3684L17.7084 18.3405C17.5437 18.292 17.3937 18.204 17.2716 18.0844C17.0975 17.9079 16.9597 17.6996 16.866 17.471C16.7461 17.2114 16.6355 16.9352 16.5312 16.6553L16.2492 15.9159L15.9453 15.0499L14.786 11.5902L14.8218 11.5756Z" fill="white" fill-opacity="0.5"/>
</svg>
