<svg width="184" height="37" viewBox="0 0 184 37" fill="none" xmlns="http://www.w3.org/2000/svg">
<path d="M34.9984 8H40.5184V36H34.9984V8ZM50.6216 19.44C51.1016 18.16 51.8882 17.2 52.9816 16.56C54.1016 15.92 55.3416 15.6 56.7016 15.6V21.36C55.1282 21.1733 53.7149 21.4933 52.4616 22.32C51.2349 23.1467 50.6216 24.52 50.6216 26.44V36H45.4616V16H50.6216V19.44ZM74.1772 16H79.3372V36H74.1772V33.64C72.6305 35.5867 70.4572 36.56 67.6572 36.56C64.9905 36.56 62.6972 35.5467 60.7772 33.52C58.8839 31.4667 57.9372 28.96 57.9372 26C57.9372 23.04 58.8839 20.5467 60.7772 18.52C62.6972 16.4667 64.9905 15.44 67.6572 15.44C70.4572 15.44 72.6305 16.4133 74.1772 18.36V16ZM64.6572 30.08C65.6972 31.12 67.0172 31.64 68.6172 31.64C70.2172 31.64 71.5372 31.12 72.5772 30.08C73.6439 29.0133 74.1772 27.6533 74.1772 26C74.1772 24.3467 73.6439 23 72.5772 21.96C71.5372 20.8933 70.2172 20.36 68.6172 20.36C67.0172 20.36 65.6972 20.8933 64.6572 21.96C63.6172 23 63.0972 24.3467 63.0972 26C63.0972 27.6533 63.6172 29.0133 64.6572 30.08ZM95.1363 15.44C97.3229 15.44 99.1229 16.1733 100.536 17.64C101.976 19.1067 102.696 21.1333 102.696 23.72V36H97.5363V24.36C97.5363 23.0267 97.1763 22.0133 96.4563 21.32C95.7363 20.6 94.7763 20.24 93.5763 20.24C92.2429 20.24 91.1763 20.6533 90.3763 21.48C89.5763 22.3067 89.1763 23.5467 89.1763 25.2V36H84.0163V16H89.1763V18.24C90.4296 16.3733 92.4163 15.44 95.1363 15.44ZM133.542 8H139.062V36H134.862L122.862 18.88V36H117.342V8H121.542L133.542 25.08V8ZM160.976 13.28H149.776V19.92H160.656V25.2H149.776V36H144.256V8H160.976V13.28ZM183.518 8V13.28H175.958V36H170.438V13.28H162.918V8H183.518Z" fill="white"/>
</svg>
