<svg width="40" height="38" viewBox="0 0 40 38" fill="none" xmlns="http://www.w3.org/2000/svg">
<path d="M15.1578 26.0083C14.7203 26.0567 14.2781 26.0409 13.8452 25.9613C13.3852 25.878 12.9459 25.7055 12.5521 25.4537C12.1731 25.2129 11.8387 24.9082 11.5638 24.5531C11.282 24.2113 11.0581 23.8257 10.901 23.4115C10.5932 22.5871 10.5416 21.6889 10.7532 20.8347C10.9363 20.0889 11.2391 19.3778 11.6498 18.729C12.4153 17.5355 13.3697 16.4743 14.4756 15.5869C14.7482 15.3689 15.0314 15.1535 15.3308 14.9504C15.6303 14.7473 15.9494 14.5767 16.2555 14.3919C16.8805 14.0658 17.529 13.787 18.1957 13.5577C20.1088 12.8968 22.1282 12.5978 24.1507 12.6759C25.0437 12.7263 25.9305 12.8553 26.8009 13.0615C27.0189 13.1209 27.2376 13.1666 27.4531 13.2364L28.1015 13.4491L28.7624 13.7342C28.9806 13.8379 29.1826 13.9736 29.3917 14.0917C30.2088 14.6137 30.894 15.3176 31.3938 16.1485C31.878 16.9601 32.1889 17.8631 32.307 18.8008C32.4273 19.7142 32.3859 20.6418 32.1846 21.5409C32.083 21.9976 31.9429 22.4449 31.7658 22.878C31.6751 23.0884 31.5779 23.3026 31.4806 23.4947C31.3695 23.7062 31.245 23.9105 31.1079 24.1063C30.5773 24.8868 29.8724 25.5332 29.0489 25.9943C28.5831 26.2527 28.0567 26.3819 27.5242 26.3687C26.9488 26.3357 26.4062 26.0902 26.0016 25.6797C25.6671 25.3344 25.4323 24.905 25.3222 24.4371C25.2207 24.0196 25.1767 23.5902 25.1912 23.1609C25.2145 22.3392 25.3856 21.5284 25.6963 20.7673C26.2938 19.2432 27.4044 17.9753 28.8365 17.1821C30.6802 16.1486 32.8882 15.9891 34.8613 16.7469C35.1038 16.8386 35.3386 16.9494 35.5635 17.0782C35.793 17.1992 36.0152 17.3335 36.2288 17.4807C36.657 17.7752 37.0396 18.131 37.3643 18.5367C37.973 19.324 38.4354 20.2142 38.7295 21.1648C38.9216 21.7331 38.9544 21.9933 38.895 21.998C38.8357 22.0028 38.6627 21.7606 38.3576 21.3584C37.9497 20.8185 37.4915 20.3186 36.9892 19.8653C36.6776 19.5937 36.343 19.3498 35.989 19.1363C35.617 18.9005 35.2222 18.7028 34.8105 18.5462C34.6287 18.4644 34.4401 18.3984 34.247 18.3489C34.1525 18.3141 34.0551 18.2881 33.9558 18.2715C33.9066 18.2594 33.8563 18.2525 33.8057 18.251L33.6595 18.2149C33.4651 18.1709 33.2677 18.1417 33.0689 18.1273C32.8703 18.1026 32.6698 18.0957 32.47 18.1069C31.6754 18.1295 30.8934 18.3103 30.1695 18.6387C28.6931 19.2517 27.5732 20.4998 27.1234 22.0339C27.0204 22.4145 26.9583 22.805 26.9383 23.1988C26.9125 23.5279 26.9482 23.8589 27.0435 24.175C27.1001 24.3661 27.2294 24.5273 27.4036 24.6241C27.611 24.7064 27.8433 24.6996 28.0455 24.6052C28.7475 24.2884 29.3485 23.7839 29.7822 23.1474C29.844 23.0657 29.892 22.9833 29.9485 22.9003C29.9997 22.8204 30.0461 22.7375 30.0874 22.652C30.169 22.4561 30.2735 22.2686 30.3368 22.057C30.4914 21.6713 30.6086 21.2717 30.6868 20.8636C30.7719 20.3581 30.7927 19.8438 30.7489 19.3331C30.6977 18.8255 30.5764 18.3275 30.3884 17.8534C30.1069 17.151 29.6634 16.5251 29.094 16.0267C29.0005 15.9455 28.8946 15.8806 28.7946 15.8032C28.6963 15.725 28.5909 15.6563 28.4796 15.598C27.5243 15.1026 26.4815 14.7981 25.4097 14.7016C24.294 14.5794 23.1687 14.5727 22.0515 14.6815C19.5891 14.9157 17.1687 15.6977 15.3665 17.3195C14.4347 18.0941 13.643 19.0231 13.0262 20.0661C12.7443 20.5528 12.5567 21.0882 12.4731 21.6444C12.4046 22.1459 12.5048 22.6559 12.7579 23.0943C13.0548 23.6396 13.5714 24.0314 14.1765 24.1704C14.8482 24.2644 15.5327 24.1599 16.1457 23.8697C17.5293 23.2534 18.7569 22.3343 19.7379 21.1801C20.4608 20.2844 21.0355 19.2787 21.4402 18.2012C21.868 17.1588 22.0405 16.0293 21.9433 14.9068C21.8295 13.8432 21.2691 12.878 20.4019 12.2518C19.4807 11.6209 18.4209 11.2214 17.3123 11.0874C15.5515 10.8658 13.7634 11.0354 12.0757 11.5842C11.6534 11.7092 11.2379 11.8563 10.831 12.0249C10.4225 12.1872 10.0291 12.3893 9.62912 12.5731C8.85346 12.9837 8.11111 13.4544 7.40884 13.9808L6.94278 14.32C6.78324 14.4164 6.65259 14.5753 6.51726 14.697L6.09047 15.0792L5.68659 15.492L5.31194 15.865C5.20205 15.9846 5.10586 16.105 5.00574 16.2188C4.81201 16.4424 4.60837 16.6276 4.45696 16.8257C4.15347 17.2134 3.86599 17.5026 3.65733 17.7531C3.34714 18.1458 2.95867 18.4697 2.51661 18.7042C2.35733 18.7974 2.19244 18.8807 2.02288 18.9535C1.79085 19.0182 1.73981 18.7424 1.82609 18.1348C1.84882 17.9629 1.8843 17.793 1.93223 17.6263C1.99825 17.4487 2.07464 17.2515 2.16535 17.0412C2.38071 16.5476 2.64368 16.0763 2.95052 15.6338C3.96571 14.1267 5.25879 12.8269 6.76057 11.8039C8.28783 10.7358 9.98453 9.93337 11.7791 9.43042C13.6407 8.8936 15.5948 8.7567 17.5131 9.02873C18.5218 9.17521 19.5027 9.47249 20.4231 9.9106C20.9122 10.1531 21.3735 10.4481 21.7988 10.7905C22.2434 11.158 22.6348 11.5856 22.9617 12.061C23.4388 12.778 23.7489 13.593 23.8689 14.4459C23.9731 15.2347 23.9559 16.0349 23.8178 16.8185C23.5427 18.2694 22.9956 19.6552 22.2055 20.9028C22.0185 21.2113 21.8139 21.5126 21.6002 21.8061C21.3781 22.1141 21.1372 22.4081 20.8787 22.6862C20.3785 23.2082 19.8419 23.6942 19.273 24.1404C18.697 24.5947 18.0784 24.9921 17.4259 25.3272C16.72 25.699 15.9551 25.946 15.1651 26.0572L15.1578 26.0083Z" fill="white" fill-opacity="0.5"/>
</svg>
