<svg width="24" height="24" viewBox="0 0 24 24" fill="none" xmlns="http://www.w3.org/2000/svg">
<path d="M12.5 21.75C18.15 21.75 22.75 17.15 22.75 11.5C22.75 5.85 18.15 1.25 12.5 1.25C6.85 1.25 2.25 5.85 2.25 11.5C2.25 17.15 6.85 21.75 12.5 21.75ZM12.5 2.75C17.33 2.75 21.25 6.68 21.25 11.5C21.25 16.32 17.33 20.25 12.5 20.25C7.67 20.25 3.75 16.32 3.75 11.5C3.75 6.68 7.67 2.75 12.5 2.75ZM2 22.751C2.19 22.751 2.38 22.681 2.53 22.531L4.53 20.531C4.66948 20.3899 4.7477 20.1994 4.7477 20.001C4.7477 19.8026 4.66948 19.6121 4.53 19.471C4.24 19.181 3.76 19.181 3.47 19.471L1.47 21.471C1.18 21.761 1.18 22.241 1.47 22.531C1.62 22.681 1.81 22.751 2 22.751Z" fill="white"/>
</svg>
