<svg width="32" height="32" viewBox="0 0 32 32" fill="none" xmlns="http://www.w3.org/2000/svg">
<path d="M15.3332 29.0001C7.79984 29.0001 1.6665 22.8667 1.6665 15.3334C1.6665 7.80008 7.79984 1.66675 15.3332 1.66675C22.8665 1.66675 28.9998 7.80008 28.9998 15.3334C28.9998 22.8667 22.8665 29.0001 15.3332 29.0001ZM15.3332 3.66675C8.89317 3.66675 3.6665 8.90675 3.6665 15.3334C3.6665 21.7601 8.89317 27.0001 15.3332 27.0001C21.7732 27.0001 26.9998 21.7601 26.9998 15.3334C26.9998 8.90675 21.7732 3.66675 15.3332 3.66675ZM29.3332 30.3347C29.0798 30.3347 28.8265 30.2414 28.6265 30.0414L25.9598 27.3747C25.7739 27.1866 25.6696 26.9327 25.6696 26.6681C25.6696 26.4035 25.7739 26.1496 25.9598 25.9614C26.3465 25.5747 26.9865 25.5747 27.3732 25.9614L30.0398 28.6281C30.4265 29.0147 30.4265 29.6547 30.0398 30.0414C29.8398 30.2414 29.5865 30.3347 29.3332 30.3347Z" fill="white" fill-opacity="0.5"/>
</svg>
