<svg width="32" height="32" viewBox="0 0 32 32" fill="none" xmlns="http://www.w3.org/2000/svg">
<path d="M24.2532 23.6667H10.0532C8.73317 23.6667 7.4665 23.1067 6.57317 22.1334C6.13006 21.6509 5.79124 21.0821 5.57788 20.4627C5.36452 19.8433 5.28122 19.1865 5.33317 18.5334L6.43984 5.25341C6.47984 4.84008 6.33317 4.44008 6.05317 4.13341C5.77317 3.82675 5.3865 3.66675 4.97317 3.66675H2.6665C2.11984 3.66675 1.6665 3.21341 1.6665 2.66675C1.6665 2.12008 2.11984 1.66675 2.6665 1.66675H4.9865C5.95984 1.66675 6.87984 2.08008 7.53317 2.78675C7.89317 3.18675 8.15984 3.65341 8.3065 4.17341H24.9598C26.3065 4.17341 27.5465 4.70675 28.4532 5.66675C29.3465 6.64008 29.7998 7.90675 29.6932 9.25341L28.9732 19.2534C28.8265 21.6934 26.6932 23.6667 24.2532 23.6667ZM8.37317 6.16008L7.33317 18.6934C7.2665 19.4667 7.51984 20.2001 8.03984 20.7734C8.55984 21.3467 9.27984 21.6534 10.0532 21.6534H24.2532C25.6398 21.6534 26.8932 20.4801 26.9998 19.0934L27.7198 9.09341C27.7515 8.71537 27.7037 8.33489 27.5796 7.97641C27.4554 7.61793 27.2577 7.28939 26.999 7.01189C26.7403 6.73438 26.4265 6.51406 26.0776 6.36506C25.7287 6.21607 25.3525 6.14171 24.9732 6.14675H8.37317V6.16008ZM21.6665 30.3334C20.1998 30.3334 18.9998 29.1334 18.9998 27.6667C18.9998 26.2001 20.1998 25.0001 21.6665 25.0001C23.1332 25.0001 24.3332 26.2001 24.3332 27.6667C24.3332 29.1334 23.1332 30.3334 21.6665 30.3334ZM21.6665 27.0001C21.2932 27.0001 20.9998 27.2934 20.9998 27.6667C20.9998 28.0401 21.2932 28.3334 21.6665 28.3334C22.0398 28.3334 22.3332 28.0401 22.3332 27.6667C22.3332 27.2934 22.0398 27.0001 21.6665 27.0001ZM10.9998 30.3334C9.53317 30.3334 8.33317 29.1334 8.33317 27.6667C8.33317 26.2001 9.53317 25.0001 10.9998 25.0001C12.4665 25.0001 13.6665 26.2001 13.6665 27.6667C13.6665 29.1334 12.4665 30.3334 10.9998 30.3334ZM10.9998 27.0001C10.6265 27.0001 10.3332 27.2934 10.3332 27.6667C10.3332 28.0401 10.6265 28.3334 10.9998 28.3334C11.3732 28.3334 11.6665 28.0401 11.6665 27.6667C11.6665 27.2934 11.3732 27.0001 10.9998 27.0001Z" fill="white"/>
<path d="M28 11.6667H12C11.4533 11.6667 11 11.2134 11 10.6667C11 10.1201 11.4533 9.66675 12 9.66675H28C28.5467 9.66675 29 10.1201 29 10.6667C29 11.2134 28.5467 11.6667 28 11.6667Z" fill="white"/>
</svg>
