<svg width="29" height="28" viewBox="0 0 29 28" fill="none" xmlns="http://www.w3.org/2000/svg">
<path d="M14.4352 14.8749C10.7369 14.8749 7.72691 11.8649 7.72691 8.16659C7.72691 4.46825 10.7369 1.45825 14.4352 1.45825C18.1336 1.45825 21.1436 4.46825 21.1436 8.16659C21.1436 11.8649 18.1336 14.8749 14.4352 14.8749ZM14.4352 3.20825C13.1212 3.21133 11.8618 3.73472 10.9326 4.66392C10.0034 5.59312 9.47999 6.8525 9.47691 8.16659C9.47999 9.48067 10.0034 10.7401 10.9326 11.6693C11.8618 12.5985 13.1212 13.1218 14.4352 13.1249C15.7493 13.1218 17.0087 12.5985 17.9379 11.6693C18.8671 10.7401 19.3905 9.48067 19.3936 8.16659C19.3905 6.8525 18.8671 5.59312 17.9379 4.66392C17.0087 3.73472 15.7493 3.21133 14.4352 3.20825ZM24.4569 26.5416C23.9786 26.5416 23.5819 26.1449 23.5819 25.6666C23.5819 21.6416 19.4752 18.3749 14.4352 18.3749C9.39524 18.3749 5.28857 21.6416 5.28857 25.6666C5.28857 26.1449 4.89191 26.5416 4.41357 26.5416C3.93524 26.5416 3.53857 26.1449 3.53857 25.6666C3.53857 20.6849 8.42691 16.6249 14.4352 16.6249C20.4436 16.6249 25.3319 20.6849 25.3319 25.6666C25.3319 26.1449 24.9352 26.5416 24.4569 26.5416Z" fill="white"/>
</svg>
