<svg width="22" height="20" viewBox="0 0 22 20" fill="none" xmlns="http://www.w3.org/2000/svg">
<path d="M4.73986 14C4.84986 13.51 4.64986 12.81 4.29986 12.46L1.86986 10.03C1.10986 9.27 0.809859 8.46 1.02986 7.76C1.25986 7.06 1.96986 6.58 3.02986 6.4L6.14986 5.88C6.59986 5.8 7.14986 5.4 7.35986 4.99L9.07986 1.54C9.57986 0.55 10.2599 0 10.9999 0C11.7399 0 12.4199 0.55 12.9199 1.54L14.6399 4.99C14.7699 5.25 15.0399 5.5 15.3299 5.67L4.55986 16.44C4.41986 16.58 4.17986 16.45 4.21986 16.25L4.73986 14ZM17.6999 12.462C17.3399 12.822 17.1399 13.512 17.2599 14.002L17.9499 17.012C18.2399 18.262 18.0599 19.202 17.4399 19.652C17.1765 19.8361 16.861 19.9307 16.5399 19.922C16.0299 19.922 15.4299 19.732 14.7699 19.342L11.8399 17.602C11.3799 17.332 10.6199 17.332 10.1599 17.602L7.22986 19.342C6.11986 19.992 5.16986 20.102 4.55986 19.652C4.32986 19.482 4.15986 19.252 4.04986 18.952L16.2099 6.792C16.6699 6.332 17.3199 6.122 17.9499 6.232L18.9599 6.402C20.0199 6.582 20.7299 7.062 20.9599 7.762C21.1799 8.462 20.8799 9.272 20.1199 10.032L17.6999 12.462Z" fill="white"/>
</svg>
