<svg width="577" height="324" viewBox="0 0 577 324" fill="none" xmlns="http://www.w3.org/2000/svg">
<path d="M-359.867 565.208C-349.325 553.346 -276.545 602.704 -265.998 590.835C-255.451 578.966 -328.237 529.614 -317.69 517.745C-307.143 505.877 -234.369 555.241 -223.822 543.372C-213.275 531.503 -286.06 482.152 -275.513 470.283C-264.966 458.414 -192.192 507.778 -181.645 495.91C-171.098 484.041 -243.883 434.689 -233.336 422.82C-222.789 410.951 -150.015 460.316 -139.468 448.447C-128.921 436.578 -201.706 387.226 -191.165 375.364C-180.624 363.501 -107.838 412.853 -97.2742 400.965C-86.7102 389.077 -159.513 339.745 -148.971 327.882C-138.43 316.02 -65.6387 365.365 -55.12 353.528C-44.6012 341.691 -117.358 292.307 -106.783 280.407C-96.2079 268.506 -23.4619 317.902 -12.9205 306.04C-2.37916 294.178 -75.1534 244.813 -64.612 232.951C-54.0706 221.088 18.7092 270.446 29.2563 258.577C39.8033 246.709 -32.9822 197.357 -22.4409 185.494C-11.8995 173.632 60.8861 222.984 71.4331 211.115C81.9801 199.246 9.19458 149.894 19.7416 138.025C30.2886 126.157 103.063 175.521 113.61 163.652C124.157 151.783 51.3714 102.432 61.9184 90.5627C72.4655 78.6939 145.24 128.058 155.787 116.19C166.334 104.321 93.5483 54.9689 104.095 43.1001C114.642 31.2312 187.417 80.5957 197.964 68.7269C208.511 56.8581 135.731 7.49995 146.272 -4.36252C156.813 -16.225 229.599 33.1267 240.14 21.2643C250.682 9.40178 177.908 -39.9627 188.449 -51.8251C198.99 -63.6876 271.776 -14.3359 282.323 -26.2047C292.87 -38.0735 220.084 -87.4253 230.631 -99.2941C241.178 -111.163 313.958 -61.8048 324.5 -73.6673C335.041 -85.5298 262.267 -134.894 272.814 -146.763C283.361 -158.632 356.141 -109.274 366.688 -121.143C377.235 -133.012 304.455 -182.37 314.996 -194.232" stroke="white" stroke-opacity="0.2" stroke-miterlimit="10"/>
<path d="M-310.521 595.702C-299.98 583.839 -227.2 633.197 -216.653 621.328C-206.106 609.46 -278.892 560.108 -268.345 548.239C-257.798 536.37 -185.023 585.735 -174.476 573.866C-163.929 561.997 -236.715 512.645 -226.168 500.776C-215.621 488.908 -142.847 538.272 -132.3 526.403C-121.753 514.534 -194.538 465.183 -183.991 453.314C-173.444 441.445 -100.67 490.809 -90.1227 478.941C-79.5757 467.072 -152.361 417.72 -141.82 405.858C-131.278 393.995 -58.4929 443.347 -47.929 431.459C-37.365 419.571 -110.167 370.238 -99.6261 358.376C-89.0847 346.513 -16.2935 395.859 -5.77475 384.022C4.74404 372.185 -68.0132 322.801 -57.438 310.901C-46.8627 299 25.8833 348.396 36.4247 336.534C46.9661 324.671 -25.8082 275.307 -15.2668 263.444C-4.72541 251.582 68.0545 300.94 78.6015 289.071C89.1485 277.202 16.363 227.85 26.9044 215.988C37.4457 204.126 110.231 253.477 120.778 241.608C131.325 229.74 58.5398 180.388 69.0868 168.519C79.6338 156.65 152.408 206.015 162.955 194.146C173.502 182.277 100.717 132.925 111.264 121.056C121.811 109.188 194.585 158.552 205.132 146.683C215.679 134.814 142.893 85.4626 153.44 73.5937C163.988 61.7249 236.762 111.089 247.309 99.2206C257.856 87.3517 185.076 37.9936 195.617 26.1311C206.159 14.2687 278.944 63.6204 289.486 51.7579C300.027 39.8954 227.253 -9.469 237.794 -21.3315C248.335 -33.194 321.121 16.1578 331.668 4.28894C342.215 -7.57989 269.43 -56.9316 279.977 -68.8005C290.524 -80.6693 363.303 -31.3112 373.845 -43.1737C384.386 -55.0361 311.612 -104.401 322.159 -116.269C332.706 -128.138 405.486 -78.7802 416.033 -90.649C426.58 -102.518 353.8 -151.876 364.342 -163.738" stroke="white" stroke-opacity="0.2" stroke-miterlimit="10"/>
<path d="M-414.121 530.39C-403.579 518.528 -330.799 567.886 -320.252 556.017C-309.705 544.148 -382.491 494.796 -371.944 482.928C-361.397 471.059 -288.623 520.423 -278.075 508.554C-267.528 496.685 -340.314 447.334 -329.767 435.465C-319.22 423.596 -246.446 472.961 -235.899 461.092C-225.352 449.223 -298.137 399.871 -287.59 388.002C-277.043 376.133 -204.269 425.498 -193.722 413.629C-183.175 401.76 -255.96 352.408 -245.419 340.546C-234.878 328.684 -162.092 378.035 -151.528 366.147C-140.964 354.259 -213.767 304.927 -203.225 293.064C-192.684 281.202 -119.893 330.547 -109.374 318.71C-98.8551 306.873 -171.612 257.49 -161.037 245.589C-150.462 233.688 -77.7158 283.085 -67.1744 271.222C-56.6331 259.36 -129.407 209.995 -118.866 198.133C-108.325 186.27 -35.5447 235.628 -24.9976 223.76C-14.4506 211.891 -87.2361 162.539 -76.6948 150.676C-66.1534 138.814 6.63217 188.166 17.1792 176.297C27.7262 164.428 -45.0593 115.076 -34.5123 103.207C-23.9653 91.3387 48.809 140.703 59.356 128.834C69.903 116.965 -2.88249 67.6137 7.66454 55.7449C18.2116 43.876 90.9858 93.2405 101.533 81.3717C112.08 69.5028 39.2943 20.151 49.8414 8.28221C60.3884 -3.58662 133.163 45.7779 143.71 33.909C154.257 22.0402 81.4768 -27.3179 92.0182 -39.1804C102.56 -51.0429 175.345 -1.69114 185.886 -13.5536C196.428 -25.4161 123.654 -74.7805 134.195 -86.643C144.736 -98.5055 217.522 -49.1537 228.069 -61.0226C238.616 -72.8914 165.83 -122.243 176.377 -134.112C186.925 -145.981 259.704 -96.6227 270.246 -108.485C280.787 -120.348 208.013 -169.712 218.56 -181.581C229.107 -193.45 301.887 -144.092 312.434 -155.961C322.981 -167.829 250.201 -217.187 260.742 -229.05" stroke="white" stroke-opacity="0.2" stroke-miterlimit="10"/>
</svg>
