<svg width="475" height="324" viewBox="0 0 475 324" fill="none" xmlns="http://www.w3.org/2000/svg">
<path d="M194.132 357.136C204.673 345.274 277.453 394.632 288 382.763C298.547 370.894 225.762 321.542 236.309 309.674C246.856 297.805 319.63 347.169 330.177 335.3C340.724 323.432 267.938 274.08 278.485 262.211C289.033 250.342 361.807 299.707 372.354 287.838C382.901 275.969 310.115 226.617 320.662 214.748C331.209 202.88 403.984 252.244 414.531 240.375C425.078 228.506 352.292 179.155 362.833 167.292C373.375 155.43 446.16 204.781 456.724 192.893C467.288 181.006 394.486 131.673 405.027 119.81C415.569 107.948 488.36 157.293 498.879 145.456C509.397 133.619 436.64 84.2357 447.215 72.3351C457.791 60.4345 530.537 109.831 541.078 97.9682C551.619 86.1057 478.845 36.7413 489.387 24.8788C499.928 13.0163 572.708 62.3744 583.255 50.5056C593.802 38.6368 521.016 -10.715 531.558 -22.5774C542.099 -34.4399 614.885 14.9118 625.432 3.04297C635.979 -8.82586 563.193 -58.1776 573.74 -70.0464C584.287 -81.9152 657.061 -32.5508 667.608 -44.4196C678.155 -56.2885 605.37 -105.64 615.917 -117.509C626.464 -129.378 699.238 -80.0134 709.785 -91.8822C720.332 -103.751 647.547 -153.103 658.094 -164.972C668.641 -176.841 741.415 -127.476 751.962 -139.345C762.509 -151.214 689.729 -200.572 700.271 -212.434C710.812 -224.297 783.598 -174.945 794.139 -186.808C804.68 -198.67 731.906 -248.034 742.447 -259.897C752.989 -271.759 825.774 -222.408 836.321 -234.276C846.868 -246.145 774.083 -295.497 784.63 -307.366C795.177 -319.235 867.957 -269.877 878.498 -281.739C889.04 -293.602 816.265 -342.966 826.812 -354.835C837.359 -366.704 910.139 -317.346 920.686 -329.214C931.233 -341.083 858.453 -390.441 868.995 -402.304" stroke="white" stroke-opacity="0.2" stroke-miterlimit="10"/>
<path d="M243.477 387.63C254.018 375.767 326.798 425.126 337.345 413.257C347.892 401.388 275.107 352.036 285.654 340.167C296.201 328.298 368.975 377.663 379.522 365.794C390.069 353.925 317.284 304.573 327.831 292.705C338.378 280.836 411.152 330.2 421.699 318.331C432.246 306.463 359.46 257.111 370.008 245.242C380.555 233.373 453.329 282.738 463.876 270.869C474.423 259 401.637 209.648 412.179 197.786C422.72 185.923 495.506 235.275 506.07 223.387C516.634 211.499 443.831 162.167 454.372 150.304C464.914 138.442 537.705 187.787 548.224 175.95C558.743 164.113 485.985 114.729 496.561 102.829C507.136 90.9281 579.882 140.324 590.423 128.462C600.965 116.599 528.19 67.2349 538.732 55.3724C549.273 43.51 622.053 92.8681 632.6 80.9993C643.147 69.1304 570.362 19.7787 580.903 7.91621C591.444 -3.94627 664.23 45.4055 674.777 33.5366C685.324 21.6678 612.538 -27.6839 623.085 -39.5528C633.632 -51.4216 706.407 -2.05714 716.954 -13.926C727.501 -25.7948 654.715 -75.1466 665.262 -87.0154C675.809 -98.8842 748.583 -49.5197 759.13 -61.3886C769.677 -73.2574 696.892 -122.609 707.439 -134.478C717.986 -146.347 790.76 -96.9824 801.307 -108.851C811.854 -120.72 739.074 -170.078 749.616 -181.941C760.157 -193.803 832.943 -144.451 843.484 -156.314C854.026 -168.176 781.251 -217.541 791.793 -229.403C802.334 -241.266 875.12 -191.914 885.667 -203.783C896.214 -215.652 823.428 -265.003 833.975 -276.872C844.522 -288.741 917.302 -239.383 927.843 -251.245C938.385 -263.108 865.611 -312.472 876.158 -324.341C886.705 -336.21 959.485 -286.852 970.032 -298.721C980.579 -310.59 907.799 -359.948 918.34 -371.81" stroke="white" stroke-opacity="0.2" stroke-miterlimit="10"/>
<path d="M139.878 322.318C150.419 310.456 223.199 359.814 233.746 347.945C244.293 336.076 171.508 286.725 182.055 274.856C192.602 262.987 265.376 312.351 275.923 300.483C286.47 288.614 213.685 239.262 224.232 227.393C234.779 215.524 307.553 264.889 318.1 253.02C328.647 241.151 255.861 191.799 266.408 179.93C276.955 168.062 349.73 217.426 360.277 205.557C370.824 193.688 298.038 144.337 308.58 132.474C319.121 120.612 391.906 169.964 402.47 158.076C413.034 146.188 340.232 96.855 350.773 84.9925C361.315 73.1301 434.106 122.475 444.625 110.638C455.143 98.8014 382.386 49.4178 392.961 37.5172C403.537 25.6166 476.283 75.0128 486.824 63.1503C497.365 51.2879 424.591 1.9234 435.133 -9.93907C445.674 -21.8016 518.454 27.5566 529.001 15.6877C539.548 3.81891 466.762 -45.5328 477.304 -57.3953C487.845 -69.2578 560.631 -19.9061 571.178 -31.7749C581.725 -43.6437 508.939 -92.9954 519.486 -104.864C530.033 -116.733 602.808 -67.3687 613.355 -79.2375C623.902 -91.1063 551.116 -140.458 561.663 -152.327C572.21 -164.196 644.984 -114.831 655.531 -126.7C666.078 -138.569 593.293 -187.921 603.84 -199.79C614.387 -211.658 687.161 -162.294 697.708 -174.163C708.255 -186.032 635.475 -235.39 646.017 -247.252C656.558 -259.115 729.344 -209.763 739.885 -221.625C750.426 -233.488 677.652 -282.852 688.194 -294.715C698.735 -306.577 771.52 -257.226 782.067 -269.094C792.615 -280.963 719.829 -330.315 730.376 -342.184C740.923 -354.053 813.703 -304.694 824.244 -316.557C834.786 -328.419 762.011 -377.784 772.558 -389.653C783.105 -401.522 855.885 -352.163 866.432 -364.032C876.979 -375.901 804.2 -425.259 814.741 -437.122" stroke="white" stroke-opacity="0.2" stroke-miterlimit="10"/>
</svg>
