<svg width="418" height="324" viewBox="0 0 418 324" fill="none" xmlns="http://www.w3.org/2000/svg">
<path d="M-310.521 595.702C-299.98 583.839 -227.2 633.197 -216.653 621.328C-206.106 609.46 -278.892 560.108 -268.345 548.239C-257.798 536.37 -185.023 585.735 -174.476 573.866C-163.929 561.997 -236.715 512.645 -226.168 500.776C-215.621 488.908 -142.847 538.272 -132.3 526.403C-121.753 514.534 -194.538 465.183 -183.991 453.314C-173.444 441.445 -100.67 490.809 -90.1227 478.941C-79.5757 467.072 -152.361 417.72 -141.82 405.858C-131.278 393.995 -58.4929 443.347 -47.929 431.459C-37.365 419.571 -110.167 370.238 -99.6261 358.376C-89.0847 346.513 -16.2935 395.859 -5.77475 384.022C4.74404 372.185 -68.0132 322.801 -57.438 310.901C-46.8627 299 25.8833 348.396 36.4247 336.534C46.9661 324.671 -25.8082 275.307 -15.2668 263.444C-4.72541 251.582 68.0545 300.94 78.6015 289.071C89.1485 277.202 16.363 227.85 26.9044 215.988C37.4457 204.126 110.231 253.477 120.778 241.608C131.325 229.74 58.5398 180.388 69.0868 168.519C79.6338 156.65 152.408 206.015 162.955 194.146C173.502 182.277 100.717 132.925 111.264 121.056C121.811 109.188 194.585 158.552 205.132 146.683C215.679 134.814 142.893 85.4626 153.44 73.5937C163.988 61.7249 236.762 111.089 247.309 99.2206C257.856 87.3517 185.076 37.9936 195.617 26.1311C206.159 14.2687 278.944 63.6204 289.486 51.7579C300.027 39.8954 227.253 -9.469 237.794 -21.3315C248.335 -33.194 321.121 16.1578 331.668 4.28894C342.215 -7.57989 269.43 -56.9316 279.977 -68.8005C290.524 -80.6693 363.303 -31.3112 373.845 -43.1737C384.386 -55.0361 311.612 -104.401 322.159 -116.269C332.706 -128.138 405.486 -78.7802 416.033 -90.649C426.58 -102.518 353.8 -151.876 364.342 -163.738" stroke="white" stroke-opacity="0.2" stroke-miterlimit="10"/>
</svg>
