<?xml version="1.0" encoding="UTF-8" standalone="no"?> <svg width="512" height="512" viewBox="0 0 512 512" fill="none" xmlns="http://www.w3.org/2000/svg">
<path d="M17.9999 256C17.9147 287.268 24.0322 318.242 35.9983 347.129C47.9644 376.017 65.5414 402.244 87.7119 424.293C92.5266 429.108 97.5106 433.684 102.664 438.023L84.6869 456H70.6239C68.7367 450.662 65.0233 446.164 60.1401 443.299C55.2568 440.434 49.518 439.388 43.938 440.346C38.3581 441.303 33.2962 444.202 29.6471 448.531C25.9979 452.859 23.9965 458.339 23.9965 464C23.9965 469.662 25.9979 475.141 29.6471 479.469C33.2962 483.798 38.3581 486.697 43.938 487.654C49.518 488.612 55.2568 487.566 60.1401 484.701C65.0233 481.836 68.7367 477.338 70.6239 472H87.9999C89.0505 472 90.0908 471.793 91.0614 471.391C92.0321 470.989 92.914 470.4 93.6569 469.657L115.3 448.009C156.125 477.893 205.406 494.002 256 494.002C306.594 494.002 355.874 477.893 396.7 448.009L418.344 469.653C419.086 470.397 419.968 470.986 420.938 471.389C421.909 471.792 422.949 471.999 424 472H441.376C443.263 477.338 446.976 481.836 451.86 484.701C456.743 487.566 462.482 488.612 468.062 487.654C473.642 486.697 478.704 483.798 482.353 479.469C486.002 475.141 488.003 469.662 488.003 464C488.003 458.339 486.002 452.859 482.353 448.531C478.704 444.202 473.642 441.303 468.062 440.346C462.482 439.388 456.743 440.434 451.86 443.299C446.976 446.164 443.263 450.662 441.376 456H427.313L409.34 438.026C414.483 433.679 419.468 429.101 424.295 424.293C446.395 402.193 463.926 375.956 475.887 347.08C487.848 318.205 494.004 287.256 494.004 256.002C494.004 224.747 487.848 193.798 475.887 164.923C463.926 136.047 446.395 109.81 424.295 87.7101C419.478 82.8934 414.492 78.3154 409.338 73.9761L427.313 56.0001H441.376C443.263 61.3378 446.976 65.8365 451.86 68.7011C456.743 71.5657 462.482 72.6118 468.062 71.6544C473.642 70.6971 478.704 67.7979 482.353 63.4694C486.002 59.1408 488.003 53.6616 488.003 48.0001C488.003 42.3386 486.002 36.8593 482.353 32.5308C478.704 28.2022 473.642 25.3031 468.062 24.3457C462.482 23.3883 456.743 24.4344 451.86 27.299C446.976 30.1636 443.263 34.6624 441.376 40.0001H424C422.949 40 421.909 40.2069 420.938 40.6089C419.968 41.011 419.086 41.6002 418.343 42.3431L396.7 63.9901C355.875 34.1083 306.597 18.0005 256.004 18.0005C205.412 18.0005 156.134 34.1083 115.309 63.9901L93.6569 42.3431C92.914 41.6002 92.0321 41.011 91.0614 40.6089C90.0908 40.2069 89.0505 40 87.9999 40.0001H70.6239C68.7367 34.6624 65.0233 30.1636 60.1401 27.299C55.2568 24.4344 49.518 23.3883 43.938 24.3457C38.3581 25.3031 33.2962 28.2022 29.6471 32.5308C25.9979 36.8593 23.9965 42.3386 23.9965 48.0001C23.9965 53.6616 25.9979 59.1408 29.6471 63.4694C33.2962 67.7979 38.3581 70.6971 43.938 71.6544C49.518 72.6118 55.2568 71.5657 60.1401 68.7011C65.0233 65.8365 68.7367 61.3378 70.6239 56.0001H84.6869L102.666 73.9791C97.5239 78.3264 92.5392 82.9034 87.7119 87.7101C65.5419 109.759 47.9652 135.985 35.9992 164.872C24.0331 193.759 17.9153 224.733 17.9999 256V256ZM47.9999 472C46.4177 472 44.8709 471.531 43.5553 470.652C42.2397 469.773 41.2144 468.523 40.6089 467.062C40.0034 465.6 39.8449 463.991 40.1536 462.439C40.4623 460.887 41.2242 459.462 42.343 458.343C43.4619 457.224 44.8873 456.462 46.4392 456.154C47.991 455.845 49.5996 456.004 51.0614 456.609C52.5232 457.215 53.7726 458.24 54.6517 459.556C55.5307 460.871 55.9999 462.418 55.9999 464C55.9975 466.121 55.1539 468.155 53.6541 469.654C52.1544 471.154 50.1209 471.998 47.9999 472V472ZM464 456C465.582 456 467.129 456.469 468.444 457.348C469.76 458.227 470.785 459.477 471.391 460.939C471.996 462.4 472.155 464.009 471.846 465.561C471.538 467.113 470.776 468.538 469.657 469.657C468.538 470.776 467.112 471.538 465.561 471.846C464.009 472.155 462.4 471.997 460.938 471.391C459.477 470.786 458.227 469.76 457.348 468.445C456.469 467.129 456 465.582 456 464C456.002 461.879 456.846 459.846 458.346 458.346C459.845 456.846 461.879 456.002 464 456ZM464 40.0001C465.582 40.0001 467.129 40.4693 468.444 41.3483C469.76 42.2274 470.785 43.4768 471.391 44.9386C471.996 46.4004 472.155 48.0089 471.846 49.5608C471.538 51.1126 470.776 52.5381 469.657 53.6569C468.538 54.7757 467.112 55.5377 465.561 55.8464C464.009 56.155 462.4 55.9966 460.938 55.3911C459.477 54.7856 458.227 53.7602 457.348 52.4446C456.469 51.129 456 49.5823 456 48.0001C456.002 45.8791 456.846 43.8456 458.346 42.3458C459.845 40.8461 461.879 40.0025 464 40.0001ZM47.9999 56.0001C46.4177 56.0001 44.8709 55.5309 43.5553 54.6518C42.2397 53.7728 41.2144 52.5233 40.6089 51.0615C40.0034 49.5997 39.8449 47.9912 40.1536 46.4394C40.4623 44.8875 41.2242 43.462 42.343 42.3432C43.4619 41.2244 44.8873 40.4625 46.4392 40.1538C47.991 39.8451 49.5996 40.0035 51.0614 40.609C52.5232 41.2145 53.7726 42.2399 54.6517 43.5555C55.5307 44.8711 55.9999 46.4178 55.9999 48.0001C55.9975 50.1211 55.1539 52.1545 53.6541 53.6543C52.1544 55.1541 50.1209 55.9977 47.9999 56.0001V56.0001ZM93.4799 104.794L103.455 114.769C67.8119 153.163 48.0039 203.614 48.0039 256.003C48.0039 308.391 67.8119 358.842 103.455 397.236L93.4799 407.211C55.2546 366.138 34.0039 312.111 34.0039 256.003C34.0039 199.894 55.2546 145.867 93.4799 104.794V104.794ZM139.043 110.357C137.762 113.682 137.616 117.337 138.627 120.754C139.638 124.171 141.749 127.158 144.633 129.252C147.516 131.345 151.011 132.427 154.572 132.329C158.134 132.232 161.564 130.961 164.329 128.713C167.094 126.466 169.039 123.367 169.862 119.9C170.685 116.434 170.339 112.792 168.879 109.542C167.418 106.291 164.925 103.614 161.787 101.927C158.648 100.24 155.041 99.6366 151.524 100.211L148.388 97.0741C180.139 75.5244 217.628 64.0036 256.001 64.0036C294.375 64.0036 331.864 75.5244 363.615 97.0741L360.476 100.214C356.993 99.6624 353.425 100.275 350.325 101.956C347.225 103.637 344.766 106.294 343.328 109.514C341.891 112.735 341.555 116.339 342.374 119.769C343.192 123.2 345.119 126.264 347.855 128.489C350.592 130.713 353.985 131.974 357.511 132.074C361.036 132.175 364.496 131.11 367.355 129.046C370.214 126.981 372.312 124.031 373.325 120.653C374.338 117.275 374.208 113.657 372.957 110.36L376.596 106.721C398.89 124.693 416.876 147.43 429.232 173.263C441.589 199.096 448.003 227.368 448.003 256.004C448.003 284.64 441.589 312.912 429.232 338.745C416.876 364.578 398.89 387.315 376.596 405.287L372.955 401.646C374.235 398.321 374.382 394.666 373.371 391.249C372.36 387.832 370.249 384.845 367.365 382.752C364.482 380.658 360.987 379.576 357.425 379.674C353.863 379.771 350.433 381.042 347.669 383.29C344.904 385.538 342.959 388.636 342.136 392.103C341.313 395.57 341.659 399.211 343.119 402.462C344.579 405.712 347.073 408.389 350.211 410.076C353.349 411.763 356.957 412.367 360.474 411.792L363.616 414.934C331.864 436.485 294.374 448.007 255.999 448.007C217.625 448.007 180.134 436.485 148.383 414.934L151.522 411.795C155.005 412.347 158.573 411.734 161.673 410.053C164.773 408.372 167.232 405.715 168.67 402.495C170.107 399.275 170.442 395.67 169.624 392.24C168.806 388.81 166.879 385.745 164.142 383.52C161.406 381.296 158.012 380.036 154.487 379.935C150.962 379.834 147.502 380.899 144.643 382.964C141.784 385.028 139.686 387.978 138.673 391.356C137.66 394.734 137.79 398.352 139.041 401.649L135.404 405.287C113.111 387.315 95.1262 364.578 82.7703 338.746C70.4143 312.914 64.0009 284.642 64.0009 256.007C64.0009 227.372 70.4143 199.1 82.7703 173.268C95.1262 147.436 113.111 124.699 135.404 106.727L139.043 110.357ZM104.793 418.524L114.768 408.549C117.778 411.338 120.866 414.04 124.032 416.654L114.019 426.667C110.881 424.047 107.806 421.333 104.793 418.524ZM256 478C209.631 478.125 164.405 463.619 126.76 436.547L136.889 426.419C171.792 450.878 213.378 463.999 255.997 463.999C298.617 463.999 340.203 450.878 375.106 426.419L385.235 436.548C347.591 463.618 302.367 478.124 256 478V478ZM387.967 416.656C391.139 414.046 394.228 411.343 397.235 408.548L407.21 418.523C404.197 421.331 401.121 424.046 397.98 426.669L387.967 416.656ZM418.523 407.209L408.548 397.234C444.192 358.84 464.001 308.388 464.001 255.999C464.001 203.609 444.192 153.157 408.548 114.763L418.523 104.788C456.749 145.862 478.001 199.889 478.001 255.999C478.001 312.108 456.749 366.136 418.523 407.209V407.209ZM407.211 93.4771L397.236 103.452C394.226 100.663 391.137 97.9601 387.969 95.3441L397.982 85.3311C401.122 87.9517 404.198 90.6671 407.211 93.4771ZM256 34.0001C302.367 33.8754 347.592 48.3803 385.237 75.4501L375.108 85.5791C340.206 61.121 298.62 48.0007 256.001 48.0007C213.383 48.0007 171.797 61.121 136.895 85.5791L126.766 75.4531C164.41 48.3829 209.634 33.877 256 34.0001V34.0001ZM124.034 95.3481C120.863 97.9567 117.774 100.659 114.768 103.455L104.793 93.4801C107.806 90.6721 110.882 87.9571 114.021 85.3351L124.034 95.3481Z" fill="black"/>
<path d="M112 177.435V334.478C112 335.882 112.37 337.262 113.072 338.478C113.774 339.694 114.784 340.704 116 341.406L252 419.928C253.216 420.63 254.596 421 256 421C257.404 421 258.784 420.63 260 419.928L396 341.406C397.216 340.704 398.226 339.694 398.928 338.478C399.63 337.262 400 335.882 400 334.478V177.435C400 176.031 399.631 174.651 398.928 173.435C398.226 172.218 397.216 171.208 396 170.506L260 91.9841C258.784 91.2825 257.404 90.9131 256 90.9131C254.596 90.9131 253.216 91.2825 252 91.9841L116 170.506C114.784 171.208 113.774 172.218 113.072 173.435C112.369 174.651 112 176.031 112 177.435ZM128 182.053L256 108.153L384 182.053V329.859L256 403.759L128 329.859V182.053Z" fill="black"/>
<path d="M200.043 161.957H200C197.886 161.957 195.858 162.794 194.359 164.285C192.86 165.775 192.012 167.799 192 169.913L191.327 293.963L159.642 191.591C159.076 189.762 157.873 188.197 156.251 187.18C154.629 186.163 152.696 185.761 150.804 186.047C148.911 186.334 147.183 187.289 145.935 188.741C144.687 190.192 144 192.043 144 193.957V321.957C144 324.079 144.843 326.114 146.343 327.614C147.843 329.114 149.878 329.957 152 329.957C154.122 329.957 156.157 329.114 157.657 327.614C159.157 326.114 160 324.079 160 321.957V246.857L191.4 348.318C191.963 350.145 193.162 351.71 194.78 352.73C196.397 353.749 198.326 354.155 200.218 353.875C202.109 353.595 203.837 352.647 205.09 351.202C206.342 349.757 207.036 347.912 207.045 346L208 170C208.006 168.949 207.804 167.908 207.408 166.935C207.011 165.962 206.426 165.077 205.687 164.331C204.948 163.584 204.07 162.99 203.101 162.582C202.133 162.175 201.094 161.963 200.043 161.957Z" fill="black"/>
<path d="M310.211 175.154L330 185.81V329.955C330 332.077 330.843 334.112 332.343 335.612C333.844 337.112 335.878 337.955 338 337.955C340.122 337.955 342.157 337.112 343.657 335.612C345.157 334.112 346 332.077 346 329.955V194.425L358.211 201C359.137 201.506 360.153 201.823 361.202 201.935C362.25 202.046 363.311 201.949 364.322 201.649C365.333 201.349 366.274 200.852 367.093 200.187C367.911 199.521 368.59 198.701 369.09 197.772C369.59 196.844 369.901 195.826 370.006 194.776C370.111 193.727 370.008 192.667 369.702 191.658C369.396 190.649 368.893 189.71 368.223 188.896C367.553 188.081 366.729 187.408 365.797 186.913L342.62 174.433C342.088 174.055 341.511 173.745 340.902 173.508L317.802 161.066C316.877 160.568 315.863 160.257 314.818 160.151C313.773 160.045 312.717 160.145 311.71 160.447C310.704 160.749 309.767 161.246 308.953 161.91C308.139 162.574 307.463 163.392 306.965 164.317C306.467 165.242 306.156 166.256 306.05 167.302C305.944 168.347 306.044 169.403 306.346 170.409C306.648 171.415 307.145 172.352 307.809 173.166C308.473 173.981 309.291 174.656 310.216 175.154H310.211Z" fill="black"/>
<path d="M280 263.955C282.122 263.955 284.157 263.112 285.657 261.612C287.157 260.112 288 258.077 288 255.955C288 253.834 287.157 251.799 285.657 250.298C284.157 248.798 282.122 247.955 280 247.955H240V158.427L258.27 147.186L283.925 161C284.851 161.506 285.867 161.823 286.916 161.935C287.964 162.046 289.025 161.949 290.036 161.649C291.047 161.349 291.988 160.852 292.807 160.187C293.625 159.521 294.303 158.701 294.803 157.772C295.303 156.844 295.615 155.826 295.72 154.776C295.825 153.727 295.722 152.667 295.416 151.658C295.11 150.649 294.607 149.71 293.937 148.896C293.267 148.082 292.442 147.408 291.511 146.913L261.797 130.913C260.563 130.249 259.175 129.92 257.774 129.96C256.372 130.001 255.006 130.409 253.812 131.143L227.812 147.143C226.647 147.859 225.686 148.861 225.018 150.054C224.351 151.247 224 152.59 224 153.957V361.957C224 364.079 224.843 366.114 226.343 367.614C227.843 369.114 229.878 369.957 232 369.957C234.122 369.957 236.157 369.114 237.657 367.614C239.157 366.114 240 364.079 240 361.957V263.957L280 263.955Z" fill="black"/>
</svg>
