<svg width="10" height="9" viewBox="0 0 10 9" fill="none" xmlns="http://www.w3.org/2000/svg">
<path d="M5 8.33333C4.85581 8.33333 4.71628 8.31606 4.6 8.2772C2.82326 7.71157 0 5.70381 0 2.73749C0 1.22627 1.31628 2.36923e-05 2.93488 2.36923e-05C3.72093 2.36923e-05 4.45581 0.284997 5 0.794495C5.27016 0.541413 5.5919 0.340817 5.94647 0.204412C6.30103 0.0680076 6.68131 -0.00147355 7.06512 2.36923e-05C8.68372 2.36923e-05 10 1.23059 10 2.73749C10 5.70813 7.17674 7.71157 5.4 8.2772C5.28372 8.31606 5.14419 8.33333 5 8.33333ZM2.93488 0.64769C1.70233 0.64769 0.697674 1.58465 0.697674 2.73749C0.697674 5.68654 3.75349 7.32729 4.82791 7.6684C4.91163 7.6943 5.09302 7.6943 5.17674 7.6684C6.24651 7.32729 9.30698 5.69086 9.30698 2.73749C9.30698 1.58465 8.30233 0.64769 7.06977 0.64769C6.36279 0.64769 5.70698 0.954252 5.28372 1.48534C5.15349 1.64941 4.85581 1.64941 4.72558 1.48534C4.5189 1.22501 4.24909 1.01352 3.93799 0.867997C3.62689 0.722471 3.28325 0.646999 2.93488 0.64769Z" fill="white"/>
</svg>
