<svg width="32" height="32" viewBox="0 0 32 32" fill="none" xmlns="http://www.w3.org/2000/svg">
<path d="M8.7335 30.3332C10.2402 30.3332 11.8268 29.9732 13.4668 29.2798C15.0668 28.5998 16.6802 27.6665 18.2535 26.5332C19.8135 25.3865 21.3202 24.1065 22.7468 22.7065C24.1602 21.2798 25.4402 19.7732 26.5735 18.2265C27.7202 16.6265 28.6402 15.0265 29.2935 13.4798C29.9868 11.8265 30.3335 10.2265 30.3335 8.71984C30.3335 7.67984 30.1468 6.69317 29.7868 5.77317C29.4135 4.8265 28.8135 3.9465 28.0002 3.1865C26.9735 2.17317 25.8002 1.6665 24.5468 1.6665C24.0268 1.6665 23.4935 1.7865 23.0402 1.99984C22.5202 2.23984 22.0802 2.59984 21.7602 3.07984L18.6668 7.43984C18.3868 7.8265 18.1735 8.19984 18.0268 8.57317C17.8535 8.97317 17.7602 9.37317 17.7602 9.75984C17.7602 10.2665 17.9068 10.7598 18.1868 11.2265C18.4319 11.643 18.7324 12.0243 19.0802 12.3598L19.9868 13.3065C19.9735 13.3465 19.9602 13.3732 19.9468 13.3998C19.7868 13.6798 19.4668 14.1598 18.8535 14.8798C18.2002 15.6265 17.5868 16.3065 16.9735 16.9332C16.1868 17.7065 15.5335 18.3198 14.9202 18.8265C14.1602 19.4665 13.6668 19.7865 13.3735 19.9332L13.4002 19.9998L12.4268 19.0398C12.0135 18.6265 11.6135 18.3198 11.2268 18.1198C10.4935 17.6665 9.56016 17.5865 8.62683 17.9732C8.28016 18.1198 7.90683 18.3198 7.50683 18.5998L3.08016 21.7465C2.58683 22.0798 2.22683 22.5065 2.0135 23.0132C1.8135 23.5198 1.72017 23.9865 1.72017 24.4532C1.72017 25.0932 1.86683 25.7332 2.14683 26.3332C2.42683 26.9332 2.7735 27.4532 3.2135 27.9332C3.9735 28.7732 4.80016 29.3732 5.76016 29.7598C6.68016 30.1332 7.68016 30.3332 8.7335 30.3332ZM24.5468 3.6665C25.2802 3.6665 25.9602 3.9865 26.6135 4.6265C27.2268 5.19984 27.6535 5.8265 27.9202 6.5065C28.2002 7.19984 28.3335 7.93317 28.3335 8.71984C28.3335 9.95984 28.0402 11.3065 27.4535 12.6932C26.8535 14.1065 26.0135 15.5732 24.9468 17.0398C23.8802 18.5065 22.6668 19.9332 21.3335 21.2798C20.0002 22.5998 18.5602 23.8265 17.0802 24.9065C15.6402 25.9598 14.1602 26.8132 12.6935 27.4265C10.4135 28.3998 8.28016 28.6265 6.52016 27.8932C5.84016 27.6132 5.24017 27.1865 4.6935 26.5732C4.38683 26.2398 4.14683 25.8798 3.94683 25.4532C3.78683 25.1198 3.70683 24.7732 3.70683 24.4265C3.70683 24.2132 3.74683 23.9998 3.8535 23.7598C3.93874 23.5947 4.06793 23.4563 4.22683 23.3598L8.6535 20.2132C8.92016 20.0265 9.16017 19.8932 9.38683 19.7998C9.68016 19.6798 9.80017 19.5598 10.2535 19.8398C10.5202 19.9732 10.7602 20.1732 11.0268 20.4398L12.0402 21.4398C12.5602 21.9465 13.3602 22.0665 13.9735 21.8398L14.3335 21.6798C14.8802 21.3865 15.5202 20.9332 16.2268 20.3332C16.8668 19.7865 17.5602 19.1465 18.4002 18.3198C19.0535 17.6532 19.7068 16.9465 20.3868 16.1598C21.0135 15.4265 21.4668 14.7998 21.7468 14.2798L21.9068 13.8798C21.9868 13.5732 22.0135 13.3998 22.0135 13.2132C22.0135 12.7332 21.8402 12.3065 21.5068 11.9732L20.5068 10.9332C20.2402 10.6665 20.0402 10.4132 19.9068 10.1865C19.8002 10.0132 19.7602 9.8665 19.7602 9.73317C19.7602 9.6265 19.8002 9.4665 19.8668 9.3065C19.9602 9.09317 20.1068 8.85317 20.2935 8.59984L23.3868 4.2265C23.5117 4.04736 23.6819 3.90469 23.8802 3.81317C24.0935 3.71984 24.3202 3.6665 24.5468 3.6665ZM13.4002 20.0132L13.6135 20.9198L13.2535 19.9865C13.3202 19.9732 13.3735 19.9865 13.4002 20.0132ZM7.3335 12.9998C7.88016 12.9998 8.3335 12.5465 8.3335 11.9998C8.3335 11.5198 8.8135 10.5198 9.6135 9.6665C10.4002 8.8265 11.2668 8.33317 12.0002 8.33317C12.5468 8.33317 13.0002 7.87984 13.0002 7.33317C13.0002 6.7865 12.5468 6.33317 12.0002 6.33317C10.7068 6.33317 9.34683 7.0265 8.16017 8.29317C7.0535 9.47984 6.3335 10.9332 6.3335 11.9998C6.3335 12.5465 6.78683 12.9998 7.3335 12.9998ZM2.66683 12.9998C3.2135 12.9998 3.66683 12.5465 3.66683 11.9998C3.66683 7.39984 7.40016 3.6665 12.0002 3.6665C12.5468 3.6665 13.0002 3.21317 13.0002 2.6665C13.0002 2.11984 12.5468 1.6665 12.0002 1.6665C6.30683 1.6665 1.66683 6.3065 1.66683 11.9998C1.66683 12.5465 2.12016 12.9998 2.66683 12.9998Z" fill="white"/>
</svg>
