<svg width="32" height="32" viewBox="0 0 32 32" fill="none" xmlns="http://www.w3.org/2000/svg">
<path d="M13.3199 30.3333C13.0533 30.3333 12.8399 30.28 12.6799 30.2133C12.1466 30.0133 11.2399 29.36 11.2399 27.2933V18.6933H8.11994C6.33327 18.6933 5.69327 17.8533 5.46661 17.36C5.23994 16.8533 5.03994 15.8267 6.21327 14.48L16.3066 3.01334C17.6666 1.46668 18.7733 1.57334 19.3066 1.77334C19.8399 1.97334 20.7466 2.62668 20.7466 4.69334V13.2933H23.8666C25.6533 13.2933 26.2933 14.1333 26.5199 14.6267C26.7466 15.1333 26.9466 16.16 25.7733 17.5067L15.6799 28.9733C14.7333 30.0533 13.9066 30.3333 13.3199 30.3333ZM18.5733 3.65334C18.5333 3.70668 18.2533 3.84001 17.8133 4.34667L7.71994 15.8133C7.34661 16.24 7.29327 16.5067 7.29327 16.56C7.31994 16.5733 7.55994 16.7067 8.11994 16.7067H12.2399C12.7866 16.7067 13.2399 17.16 13.2399 17.7067V27.3067C13.2399 27.9733 13.3599 28.2667 13.4133 28.3467C13.4533 28.2933 13.7333 28.16 14.1733 27.6533L24.2666 16.1867C24.6399 15.76 24.6933 15.4933 24.6933 15.44C24.6666 15.4267 24.4266 15.2933 23.8666 15.2933H19.7466C19.1999 15.2933 18.7466 14.84 18.7466 14.2933V4.69334C18.7599 4.02667 18.6266 3.74668 18.5733 3.65334Z" fill="white"/>
</svg>
