<svg width="48" height="48" viewBox="0 0 48 48" fill="none" xmlns="http://www.w3.org/2000/svg">
<path d="M23.9998 45.5199C21.8198 45.5199 19.6598 44.8799 17.9598 43.6199L9.3598 37.1999C7.0798 35.4999 5.2998 31.9599 5.2998 29.1199V14.2599C5.2998 11.1799 7.5598 7.8999 10.4598 6.8199L20.4398 3.0799C22.4198 2.3399 25.5398 2.3399 27.5198 3.0799L37.5198 6.8199C40.4198 7.8999 42.6798 11.1799 42.6798 14.2599V29.1199C42.6798 31.9599 40.8998 35.4999 38.6198 37.1999L30.0198 43.6199C28.3398 44.8799 26.1798 45.5199 23.9998 45.5199ZM21.4998 5.8799L11.5198 9.6199C9.7998 10.2599 8.2998 12.4199 8.2998 14.2599V29.1199C8.2998 31.0199 9.6398 33.6799 11.1398 34.7999L19.7398 41.2199C22.0398 42.9399 25.9398 42.9399 28.2398 41.2199L36.8398 34.7999C38.3598 33.6599 39.6798 30.9999 39.6798 29.1199V14.2599C39.6798 12.4399 38.1798 10.2799 36.4598 9.6199L26.4798 5.8799C25.1598 5.3799 22.8398 5.3799 21.4998 5.8799Z" fill="white"/>
<path d="M24.0001 23.3398H23.8601C20.9601 23.2598 18.8401 21.0398 18.8401 18.3398C18.8401 15.5798 21.1001 13.3198 23.8601 13.3198C26.6201 13.3198 28.8801 15.5798 28.8801 18.3398C28.8789 19.64 28.3742 20.8892 27.4717 21.8252C26.5693 22.7612 25.3394 23.3112 24.0401 23.3598C24.0201 23.3398 24.0201 23.3398 24.0001 23.3398ZM23.8601 16.3198C22.7401 16.3198 21.8401 17.2198 21.8401 18.3398C21.8401 19.4398 22.7001 20.3198 23.7801 20.3598H24.0001C24.5129 20.329 24.9943 20.1021 25.3443 19.726C25.6943 19.3499 25.8862 18.8535 25.8801 18.3398C25.8828 18.0738 25.8323 17.8099 25.7318 17.5637C25.6312 17.3174 25.4825 17.0936 25.2944 16.9055C25.1063 16.7174 24.8826 16.5687 24.6363 16.4681C24.39 16.3676 24.1261 16.3172 23.8601 16.3198ZM24.0001 34.6998C22.2801 34.6998 20.5401 34.2398 19.2001 33.3398C17.8601 32.4598 17.1001 31.1618 17.1001 29.7818C17.1001 28.4018 17.8601 27.1018 19.2001 26.2018C21.9001 24.4018 26.1201 24.4218 28.8001 26.2018C30.1401 27.0818 30.9001 28.3818 30.9001 29.7618C30.9001 31.1418 30.1401 32.4418 28.8001 33.3418C27.4601 34.2418 25.7201 34.6998 24.0001 34.6998ZM20.8601 28.6798C20.3601 28.9998 20.0801 29.3998 20.1001 29.7598C20.1001 30.1198 20.3801 30.5198 20.8601 30.8398C22.5401 31.9598 25.4601 31.9598 27.1401 30.8398C27.6401 30.5198 27.9201 30.1198 27.9201 29.7598C27.9201 29.3998 27.6401 28.9998 27.1601 28.6798C25.4801 27.5798 22.5401 27.5798 20.8601 28.6798Z" fill="white"/>
</svg>
